<svg width="108" height="22" viewBox="0 0 108 22" fill="none" xmlns="http://www.w3.org/2000/svg">
<path d="M67.7291 16.3064H64.6066V7.287H67.7291V16.3064Z" fill="#333333"/>
<path d="M67.9176 3.82284C67.9176 4.80729 67.1281 5.61621 66.1673 5.61621C65.2068 5.61621 64.4173 4.80729 64.4173 3.82284C64.4173 2.83859 65.2068 2.02966 66.1673 2.02966C67.1281 2.02966 67.9176 2.83859 67.9176 3.82284Z" fill="#333333"/>
<path fill-rule="evenodd" clip-rule="evenodd" d="M43.4492 7.2872H40.3267V8.16575C39.6741 7.37448 38.6108 6.98757 37.5983 6.98757C34.9897 6.98757 33.1885 9.20276 33.1885 11.7872C33.1885 14.3719 35.0248 16.6053 37.6324 16.6053C38.662 16.6053 39.7429 16.2009 40.2919 15.3039H40.3267V16.3066H43.4492V7.2872ZM38.4215 9.76596C39.6909 9.76596 40.4292 10.6973 40.4292 11.8056C40.4292 12.9481 39.6909 13.8277 38.4215 13.8277C37.1525 13.8277 36.4142 12.9481 36.4142 11.8056C36.4142 10.6973 37.1525 9.76596 38.4215 9.76596Z" fill="#333333"/>
<path d="M48.5974 7.2872V12.1045C48.5974 13.247 48.8719 14.0557 50.1592 14.0557C51.4454 14.0557 51.7199 13.247 51.7199 12.1045V7.2872H54.8425V12.7202C54.8425 15.6908 52.8008 16.6055 50.1592 16.6055C47.5158 16.6055 45.4741 15.6908 45.4741 12.7202V7.2872H48.5974Z" fill="#333333"/>
<path d="M59.9903 8.76425H59.9555V7.2872H56.8329V16.3066H59.9555V12.6662C59.9555 11.12 60.3852 9.94167 62.118 9.94167C62.5989 9.94167 63.01 9.99404 63.4393 10.2405V7.16404H62.8383C61.6202 7.16404 60.5913 7.65588 59.9903 8.76425Z" fill="#333333"/>
<path fill-rule="evenodd" clip-rule="evenodd" d="M76.3248 7.2872H79.4481V15.4271C79.4481 19.2599 77.5949 20.8076 74.3516 20.8076C72.3271 20.8076 69.6163 19.7351 69.3414 17.3609H72.8417C72.9278 17.678 73.1503 17.906 73.4248 18.0466C73.6993 18.1873 74.0258 18.258 74.3176 18.258C75.9983 18.258 76.3248 17.133 76.3248 15.6734V15.2514C75.5185 16.0778 74.6942 16.4821 73.528 16.4821C70.9538 16.4821 69.1874 14.4776 69.1874 11.8755C69.1874 9.23844 71.0058 6.98757 73.6993 6.98757C74.7293 6.98757 75.6729 7.33956 76.2908 8.23577H76.3248V7.2872ZM76.428 11.7348C76.428 10.6272 75.6898 9.69536 74.4204 9.69536C73.1503 9.69536 72.4124 10.6272 72.4124 11.7348C72.4124 12.8774 73.1503 13.7569 74.4204 13.7569C75.6898 13.7569 76.428 12.8774 76.428 11.7348Z" fill="#333333"/>
<path d="M84.5263 8.41206H84.5604C85.2994 7.41016 86.2082 6.98757 87.3411 6.98757C88.6104 6.98757 89.7081 7.51508 90.3436 8.71092C90.9442 7.5851 92.1276 6.98757 93.3296 6.98757C95.5594 6.98757 96.3325 8.48207 96.3325 10.5567V16.3066H93.2092V11.9294C93.2099 10.9931 93.2114 9.53711 91.9222 9.53711C90.4804 9.53711 90.4285 10.9261 90.4285 11.9986V16.3066H87.307V11.9986C87.307 10.9967 87.307 9.46728 85.9165 9.46728C84.5263 9.46728 84.5263 10.9967 84.5263 11.9986V16.3066H81.4038V7.2872H84.5263V8.41206Z" fill="#333333"/>
<path fill-rule="evenodd" clip-rule="evenodd" d="M104.877 7.2872H108L108 16.3066H104.877V15.3039H104.843C104.293 16.2009 103.213 16.6053 102.183 16.6053C99.5743 16.6053 97.7391 14.3719 97.7391 11.7872C97.7391 9.20276 99.5403 6.98757 102.149 6.98757C103.161 6.98757 104.225 7.37448 104.877 8.16575V7.2872ZM104.98 11.8056C104.98 10.6973 104.242 9.76596 102.972 9.76596C101.702 9.76596 100.965 10.6973 100.965 11.8056C100.965 12.9481 101.702 13.8277 102.972 13.8277C104.242 13.8277 104.98 12.9481 104.98 11.8056Z" fill="#333333"/>
<path d="M0.707296 10.4808C4.19136 4.17245 13.3079 -0.498256 21.0707 0.0426127C28.8328 0.586704 32.304 6.14041 28.8206 12.4463C26.4128 16.8092 21.3087 20.3865 15.8216 22L26.3202 7.39027L18.9422 7.37362L17.5618 9.29343C17.2627 7.5625 15.3561 6.71244 12.9644 6.70707C8.82094 6.69883 3.97051 8.88397 0 12.0295C0.194996 11.5194 0.418297 11.0043 0.707296 10.4808Z" fill="url(#paint0_linear)"/>
<path d="M12.0939 17.2435C10.2991 19.7391 7.1757 21.6562 4.17598 21.6487C3.16117 21.5911 2.25643 20.8699 2.00867 20.294C1.81786 19.5076 1.74133 18.4252 2.60588 17.2228C4.34302 14.8036 7.55032 12.7725 10.55 12.7791C13.5501 12.785 13.8311 14.8237 12.0939 17.2435Z" fill="url(#paint1_linear)"/>
<defs>
<linearGradient id="paint0_linear" x1="21.1939" y1="-4.3027e-07" x2="3.54434" y2="23.1048" gradientUnits="userSpaceOnUse">
<stop stop-color="#9B6BCC"/>
<stop offset="1" stop-color="#722AB5"/>
</linearGradient>
<linearGradient id="paint1_linear" x1="21.1939" y1="-4.3027e-07" x2="3.54434" y2="23.1048" gradientUnits="userSpaceOnUse">
<stop stop-color="#9B6BCC"/>
<stop offset="1" stop-color="#722AB5"/>
</linearGradient>
</defs>
</svg>
