<svg width="120" height="120" viewBox="0 0 120 120" fill="none" xmlns="http://www.w3.org/2000/svg">
<rect width="120" height="120" fill="white"/>
<path d="M76.6647 43.3335C58.2856 43.3335 43.3335 58.2858 43.3335 76.6647C43.3335 95.0436 58.2856 109.996 76.6647 109.996C82.613 109.996 88.4066 108.423 93.5011 105.436L110 110L105.436 93.5011C108.423 88.4063 109.996 82.6128 109.996 76.6647C109.996 58.2856 95.0439 43.3335 76.6647 43.3335Z" fill="#30C2FF"/>
<path d="M14.5639 60.1676C11.577 55.0728 10.0041 49.2793 10.0041 43.3312C10.0041 24.9523 24.9562 10 43.3353 10C61.7144 10 76.6668 24.9523 76.6648 43.3332L76.6607 43.3373H76.6665C76.6634 61.7128 61.7135 76.6616 43.3353 76.6588V76.6625C37.3871 76.6625 31.5936 75.0896 26.499 72.1027L10 76.6666L14.5639 60.1676Z" fill="#FFC226"/>
</svg>
