<svg width="170" height="30" viewBox="0 0 170 30" fill="none" xmlns="http://www.w3.org/2000/svg">
<path d="M38.5493 11.393C38.4573 12.6912 37.9905 13.7091 37.1447 14.4556C36.301 15.1999 35.1876 15.5721 33.8065 15.5721C32.2948 15.5721 31.1064 15.0511 30.2392 14.009C29.3741 12.9692 28.9395 11.5397 28.9395 9.72269V8.98494C28.9395 7.82688 29.1386 6.80455 29.539 5.91794C29.9373 5.03572 30.509 4.35927 31.2499 3.88641C31.9929 3.41575 32.8558 3.17713 33.8365 3.17713C35.1983 3.17713 36.2946 3.54928 37.1254 4.2936C37.9562 5.0401 38.438 6.08432 38.5665 7.43284H36.1362C36.0784 6.6535 35.8664 6.08651 35.5002 5.73624C35.1383 5.38598 34.5816 5.21085 33.8365 5.21085C33.0271 5.21085 32.4211 5.50638 32.0207 6.10183C31.6181 6.69509 31.4126 7.61672 31.4019 8.86454V9.77523C31.4019 11.0778 31.5925 12.0301 31.98 12.6321C32.3676 13.2341 32.9757 13.5362 33.8065 13.5362C34.5559 13.5362 35.1169 13.3611 35.4874 13.013C35.8557 12.6627 36.0676 12.122 36.1233 11.3908H38.5493V11.393ZM45.2429 14.495C44.6647 15.2131 43.866 15.5721 42.8468 15.5721C41.9068 15.5721 41.1916 15.2941 40.697 14.7446C40.2024 14.1929 39.9519 13.3851 39.939 12.319V6.44991H42.2794V12.2402C42.2794 13.1728 42.6948 13.6391 43.5256 13.6391C44.3179 13.6391 44.8639 13.3567 45.1615 12.7941V6.44991H47.5083V15.4035H45.305L45.2407 14.4972L45.2429 14.495ZM54.0155 12.9298C54.0155 12.6386 53.8721 12.4066 53.5894 12.2402C53.3046 12.0695 52.8507 11.9206 52.2233 11.7871C50.1399 11.3405 49.0971 10.4342 49.0971 9.07251C49.0971 8.27566 49.4204 7.61016 50.0649 7.08038C50.7116 6.54623 51.5552 6.28134 52.598 6.28134C53.7093 6.28134 54.6001 6.55061 55.266 7.08476C55.9319 7.6211 56.266 8.31725 56.266 9.17321H53.9256C53.9256 8.8317 53.8185 8.55149 53.6023 8.3282C53.386 8.1049 53.0498 7.99545 52.5895 7.99545C52.1955 7.99545 51.8914 8.0852 51.6752 8.2669C51.4589 8.45079 51.3518 8.68284 51.3518 8.96086C51.3518 9.22356 51.4739 9.4381 51.7201 9.60009C51.9664 9.76428 52.3818 9.90439 52.9642 10.0204C53.5466 10.1386 54.0369 10.2744 54.4374 10.421C55.6729 10.8851 56.2917 11.6885 56.2917 12.8313C56.2917 13.6478 55.9491 14.309 55.2639 14.8146C54.5787 15.3203 53.6901 15.5721 52.6066 15.5721C51.8722 15.5721 51.2191 15.4386 50.6495 15.1715C50.0799 14.9022 49.6346 14.5366 49.3091 14.0703C48.9858 13.604 48.8252 13.1005 48.8252 12.5576H51.0413C51.0628 12.9845 51.2191 13.3085 51.5017 13.5384C51.7886 13.7639 52.1741 13.8777 52.6516 13.8777C53.0991 13.8777 53.4395 13.7901 53.6687 13.6172C53.8978 13.4421 54.0134 13.2122 54.0134 12.9298H54.0155ZM60.5999 4.24543V6.44991H62.0987V8.21436H60.5999V12.6802C60.5999 13.0108 60.6641 13.2472 60.7883 13.3917C60.9125 13.5362 61.1502 13.6062 61.5013 13.6062C61.7583 13.6062 61.9874 13.5865 62.1887 13.5493V15.3576C61.7304 15.502 61.2572 15.5721 60.7712 15.5721C59.1288 15.5721 58.2916 14.7271 58.2616 13.0349V8.21436H56.9812V6.44991H58.2616V4.24543H60.5999ZM62.846 10.8435C62.846 9.95255 63.0152 9.16226 63.3492 8.46611C63.6832 7.77215 64.165 7.23143 64.7945 6.85052C65.4219 6.46742 66.1521 6.27915 66.9829 6.27915C68.167 6.27915 69.1306 6.64912 69.88 7.38905C70.6251 8.1268 71.0427 9.13162 71.1305 10.4013L71.1476 11.0143C71.1476 12.3913 70.7707 13.4924 70.0213 14.3221C69.2697 15.154 68.2634 15.5699 67 15.5699C65.7367 15.5699 64.7282 15.154 63.9766 14.3265C63.2229 13.499 62.846 12.3737 62.846 10.9486V10.8413V10.8435ZM65.1864 11.0121C65.1864 11.8637 65.3406 12.5139 65.6553 12.9626C65.9679 13.4114 66.4155 13.6391 67 13.6391C67.5675 13.6391 68.0085 13.4158 68.3276 12.9714C68.6488 12.527 68.8051 11.8155 68.8051 10.8392C68.8051 10.0051 68.6466 9.35929 68.3276 8.89957C68.0107 8.44203 67.561 8.21217 66.9829 8.21217C66.4112 8.21217 65.9679 8.43984 65.6553 8.89519C65.3406 9.35053 65.1864 10.0554 65.1864 11.0121ZM74.7899 6.44772L74.8627 7.44597C75.4836 6.66882 76.3251 6.27915 77.3829 6.27915C78.5113 6.27915 79.2843 6.7345 79.704 7.64299C80.3207 6.7345 81.1965 6.27915 82.3377 6.27915C83.2863 6.27915 83.9929 6.56155 84.4576 7.12635C84.9222 7.69115 85.1535 8.54492 85.1535 9.68109V15.4013H82.8045V9.6789C82.8045 9.17102 82.7082 8.80105 82.5133 8.56463C82.3206 8.33039 81.978 8.21217 81.4855 8.21217C80.7832 8.21217 80.2971 8.55368 80.0252 9.24107L80.0338 15.4013H77.6955V9.68766C77.6955 9.16883 77.597 8.7923 77.3936 8.56025C77.1945 8.3282 76.854 8.21217 76.3744 8.21217C75.7106 8.21217 75.231 8.49457 74.9355 9.05718V15.4013H72.5951V6.44772H74.7899ZM90.9862 15.5699C89.7015 15.5699 88.6544 15.1649 87.8471 14.3593C87.0399 13.5537 86.6352 12.4788 86.6352 11.1369V10.9048C86.6352 10.0073 86.8065 9.20167 87.147 8.49238C87.4874 7.7831 87.9671 7.23581 88.5923 6.85271C89.2176 6.46742 89.9263 6.27478 90.725 6.27478C91.9241 6.27478 92.8662 6.66226 93.5557 7.43284C94.243 8.20779 94.5856 9.30237 94.5856 10.7231V11.7017H89.0077C89.0827 12.2862 89.3118 12.7525 89.6908 13.1071C90.0719 13.4596 90.5537 13.6347 91.1361 13.6347C92.0397 13.6347 92.742 13.3019 93.2516 12.6364L94.4015 13.9521C94.0503 14.4578 93.575 14.8562 92.9754 15.1386C92.378 15.4232 91.7121 15.5655 90.9862 15.5655V15.5699ZM90.7186 8.21217C90.2539 8.21217 89.8792 8.37198 89.588 8.69598C89.3011 9.01778 89.1148 9.47969 89.0355 10.0773H92.2881V9.88468C92.2774 9.35272 92.1382 8.94116 91.8684 8.65C91.5986 8.35885 91.2153 8.21217 90.7186 8.21217ZM100.838 8.68284C100.521 8.64125 100.241 8.61717 99.9987 8.61717C99.1122 8.61717 98.5319 8.92146 98.2579 9.53661V15.4013H95.9175V6.44772H98.1294L98.1936 7.50946C98.6647 6.68634 99.3156 6.27696 100.144 6.27696C100.403 6.27696 100.647 6.31418 100.874 6.38423L100.84 8.68065L100.838 8.68284ZM102.671 7.04098L101.57 6.38861C102.035 5.64211 102.275 4.87372 102.29 4.08344V2.68457H104.153V3.96741C104.153 4.46216 104.018 4.9985 103.748 5.57863C103.476 6.15875 103.118 6.64693 102.669 7.04317L102.671 7.04098ZM108.902 12.9276C108.902 12.6364 108.759 12.4044 108.476 12.238C108.191 12.0673 107.737 11.9184 107.11 11.7849C105.026 11.3383 103.984 10.432 103.984 9.07032C103.984 8.27347 104.307 7.60797 104.951 7.07819C105.598 6.54404 106.442 6.27915 107.482 6.27915C108.594 6.27915 109.484 6.54842 110.15 7.08257C110.816 7.61891 111.15 8.31506 111.15 9.17102H108.81C108.81 8.82951 108.703 8.5493 108.487 8.32601C108.27 8.10272 107.934 7.99326 107.474 7.99326C107.08 7.99326 106.776 8.08301 106.559 8.26471C106.343 8.4486 106.236 8.68065 106.236 8.95867C106.236 9.22137 106.358 9.43591 106.604 9.5979C106.851 9.76209 107.266 9.9022 107.848 10.0182C108.431 10.1364 108.921 10.2722 109.322 10.4188C110.557 10.8829 111.176 11.6864 111.176 12.8291C111.176 13.6456 110.833 14.3068 110.148 14.8125C109.463 15.3182 108.574 15.5699 107.491 15.5699C106.756 15.5699 106.103 15.4364 105.534 15.1693C104.964 14.9 104.519 14.5344 104.193 14.0681C103.87 13.6019 103.709 13.0984 103.709 12.5554H105.926C105.947 12.9823 106.103 13.3063 106.388 13.5362C106.675 13.7617 107.061 13.8755 107.538 13.8755C107.986 13.8755 108.326 13.7879 108.555 13.615C108.784 13.4399 108.9 13.21 108.9 12.9276H108.902ZM126.222 11.3908C126.13 12.689 125.664 13.7069 124.818 14.4534C123.974 15.1977 122.861 15.5699 121.48 15.5699C119.968 15.5699 118.78 15.0489 117.91 14.0069C117.045 12.967 116.61 11.5375 116.61 9.7205V8.98275C116.61 7.82469 116.81 6.80236 117.21 5.91575C117.608 5.03353 118.18 4.35708 118.921 3.88422C119.664 3.41356 120.527 3.17494 121.507 3.17494C122.869 3.17494 123.966 3.5471 124.796 4.29141C125.627 5.03791 126.109 6.08213 126.235 7.43065H123.805C123.747 6.65131 123.535 6.08432 123.169 5.73406C122.807 5.38379 122.25 5.20866 121.505 5.20866C120.696 5.20866 120.09 5.50419 119.69 6.09964C119.285 6.6929 119.081 7.61453 119.071 8.86235V9.77304C119.071 11.0756 119.261 12.0279 119.649 12.6299C120.036 13.2319 120.645 13.534 121.475 13.534C122.225 13.534 122.786 13.3589 123.156 13.0108C123.525 12.6605 123.736 12.1198 123.792 11.3886H126.218L126.222 11.3908ZM132.743 15.4013C132.635 15.1868 132.558 14.9197 132.507 14.6023C131.94 15.2503 131.203 15.5721 130.295 15.5721C129.439 15.5721 128.726 15.3182 128.162 14.8081C127.599 14.3002 127.317 13.6566 127.317 12.8838C127.317 11.9337 127.661 11.2047 128.351 10.6969C129.038 10.189 130.034 9.93066 131.334 9.92628H132.411V9.41839C132.411 9.00683 132.306 8.67846 132.098 8.43109C131.89 8.1859 131.563 8.06112 131.113 8.06112C130.721 8.06112 130.411 8.15744 130.188 8.34571C129.963 8.53398 129.85 8.79668 129.85 9.12943H127.512C127.512 8.61279 127.666 8.13117 127.978 7.69334C128.293 7.25332 128.736 6.90744 129.308 6.65569C129.88 6.40394 130.522 6.27915 131.235 6.27915C132.316 6.27915 133.173 6.55718 133.807 7.11103C134.443 7.66707 134.76 8.44422 134.76 9.45123V13.3326C134.766 14.1798 134.882 14.8256 135.109 15.2612V15.4013H132.743ZM130.807 13.7398C131.152 13.7398 131.471 13.661 131.764 13.5055C132.055 13.3479 132.269 13.1356 132.411 12.8729V11.3339H131.537C130.366 11.3339 129.741 11.7455 129.666 12.5751L129.657 12.7153C129.657 13.013 129.76 13.2582 129.963 13.453C130.169 13.6456 130.449 13.742 130.807 13.742V13.7398ZM138.71 6.44772L138.785 7.48319C139.41 6.67977 140.25 6.27915 141.303 6.27915C142.233 6.27915 142.924 6.55937 143.376 7.11541C143.83 7.67145 144.061 8.50552 144.072 9.61323V15.4013H141.732V9.66139C141.732 9.1557 141.624 8.78573 141.408 8.55587C141.192 8.3282 140.834 8.21217 140.331 8.21217C139.674 8.21217 139.179 8.49895 138.849 9.0747V15.4013H136.509V6.44772H138.712H138.71ZM149.123 12.4788L150.748 6.44772H153.194L150.239 15.4013H148.003L145.048 6.44772H147.494L149.121 12.4788H149.123ZM159.165 15.4013C159.058 15.1868 158.981 14.9197 158.93 14.6023C158.363 15.2503 157.626 15.5721 156.718 15.5721C155.862 15.5721 155.149 15.3182 154.585 14.8081C154.022 14.3002 153.74 13.6566 153.74 12.8838C153.74 11.9337 154.084 11.2047 154.774 10.6969C155.461 10.189 156.457 9.93066 157.757 9.92628H158.836V9.41839C158.836 9.00683 158.731 8.67846 158.523 8.43109C158.315 8.1859 157.988 8.06112 157.538 8.06112C157.146 8.06112 156.836 8.15744 156.613 8.34571C156.388 8.53398 156.277 8.79668 156.277 9.12943H153.939C153.939 8.61279 154.093 8.13117 154.406 7.69334C154.72 7.25332 155.164 6.90744 155.735 6.65569C156.307 6.40394 156.949 6.27915 157.662 6.27915C158.744 6.27915 159.6 6.55718 160.232 7.11103C160.868 7.66707 161.185 8.44422 161.185 9.45123V13.3326C161.191 14.1798 161.307 14.8256 161.534 15.2612V15.4013H159.165ZM157.23 13.7398C157.575 13.7398 157.894 13.661 158.187 13.5055C158.478 13.3479 158.692 13.1356 158.834 12.8729V11.3339H157.96C156.789 11.3339 156.163 11.7455 156.089 12.5751L156.08 12.7153C156.08 13.013 156.183 13.2582 156.386 13.453C156.592 13.6456 156.872 13.742 157.23 13.742V13.7398ZM167.724 12.9298C167.724 12.6386 167.581 12.4066 167.298 12.2402C167.013 12.0695 166.559 11.9206 165.932 11.7871C163.848 11.3405 162.806 10.4342 162.806 9.07251C162.806 8.27566 163.129 7.61016 163.773 7.08038C164.42 6.54623 165.264 6.28134 166.307 6.28134C167.418 6.28134 168.309 6.55061 168.975 7.08476C169.64 7.6211 169.974 8.31725 169.974 9.17321H167.634C167.634 8.8317 167.527 8.55149 167.311 8.3282C167.094 8.1049 166.758 7.99545 166.298 7.99545C165.904 7.99545 165.6 8.0852 165.384 8.2669C165.167 8.45079 165.06 8.68284 165.06 8.96086C165.06 9.22356 165.182 9.4381 165.429 9.60009C165.675 9.76428 166.09 9.90439 166.673 10.0204C167.255 10.1386 167.745 10.2744 168.146 10.421C169.381 10.8851 170 11.6885 170 12.8313C170 13.6478 169.658 14.309 168.972 14.8146C168.287 15.3203 167.399 15.5721 166.315 15.5721C165.581 15.5721 164.928 15.4386 164.358 15.1715C163.788 14.9022 163.343 14.5366 163.018 14.0703C162.694 13.604 162.534 13.1005 162.534 12.5576H164.75C164.771 12.9845 164.928 13.3085 165.21 13.5384C165.497 13.7639 165.883 13.8777 166.36 13.8777C166.808 13.8777 167.148 13.7901 167.377 13.6172C167.606 13.4421 167.722 13.2122 167.722 12.9298H167.724Z" fill="#333333"/>
<path d="M33.5781 25.2139C33.5781 26.0342 33.3942 26.6868 33.0264 27.1719C32.6618 27.6569 32.1589 27.8994 31.5176 27.8994C30.8991 27.8994 30.4173 27.6764 30.0723 27.2305L30.0137 27.8018H28.9395V20.3018H30.126V23.0264C30.4678 22.6227 30.9284 22.4209 31.5078 22.4209C32.1523 22.4209 32.6585 22.6602 33.0264 23.1387C33.3942 23.6172 33.5781 24.2861 33.5781 25.1455V25.2139ZM32.3916 25.1113C32.3916 24.5384 32.2907 24.1087 32.0889 23.8223C31.887 23.5358 31.5941 23.3926 31.21 23.3926C30.6956 23.3926 30.3343 23.6172 30.126 24.0664V26.2441C30.3376 26.7031 30.7021 26.9326 31.2197 26.9326C31.5908 26.9326 31.8773 26.7943 32.0791 26.5176C32.2809 26.2409 32.3851 25.8226 32.3916 25.2627V25.1113Z" fill="#333333"/>
<path d="M36.5662 26.1025L37.6404 22.5186H38.9051L36.8055 28.6025C36.4832 29.4912 35.9363 29.9355 35.1648 29.9355C34.9923 29.9355 34.8019 29.9062 34.5936 29.8477V28.9297L34.8182 28.9443C35.1176 28.9443 35.3423 28.889 35.492 28.7783C35.645 28.6709 35.7654 28.4886 35.8533 28.2314L36.0242 27.7773L34.1687 22.5186H35.448L36.5662 26.1025Z" fill="#333333"/>
<path d="M46.5756 26.1465H43.8217L43.2455 27.8018H41.9613L44.6469 20.6924H45.7553L48.4457 27.8018H47.1566L46.5756 26.1465ZM44.1684 25.1504H46.2289L45.1986 22.2012L44.1684 25.1504Z" fill="#333333"/>
<path d="M52.4836 27.2842C52.1353 27.6943 51.6405 27.8994 50.9992 27.8994C50.4263 27.8994 49.9917 27.7318 49.6955 27.3965C49.4025 27.0612 49.2561 26.5762 49.2561 25.9414V22.5186H50.4426V25.9268C50.4426 26.5973 50.7209 26.9326 51.2775 26.9326C51.8537 26.9326 52.2427 26.7259 52.4445 26.3125V22.5186H53.6311V27.8018H52.5129L52.4836 27.2842Z" fill="#333333"/>
<path d="M57.8057 23.6025C57.6494 23.5765 57.4883 23.5635 57.3223 23.5635C56.7786 23.5635 56.4124 23.7718 56.2236 24.1885V27.8018H55.0371V22.5186H56.1699L56.1992 23.1094C56.4857 22.6504 56.8828 22.4209 57.3906 22.4209C57.5599 22.4209 57.6999 22.4437 57.8105 22.4893L57.8057 23.6025Z" fill="#333333"/>
<path d="M60.0174 27.8018H58.8309V22.5186H60.0174V27.8018ZM58.7576 21.1465C58.7576 20.9642 58.8146 20.8128 58.9285 20.6924C59.0457 20.5719 59.2117 20.5117 59.4266 20.5117C59.6414 20.5117 59.8074 20.5719 59.9246 20.6924C60.0418 20.8128 60.1004 20.9642 60.1004 21.1465C60.1004 21.3255 60.0418 21.4753 59.9246 21.5957C59.8074 21.7129 59.6414 21.7715 59.4266 21.7715C59.2117 21.7715 59.0457 21.7129 58.9285 21.5957C58.8146 21.4753 58.7576 21.3255 58.7576 21.1465Z" fill="#333333"/>
<path d="M61.3062 25.1211C61.3062 24.3008 61.4983 23.6465 61.8824 23.1582C62.2698 22.6667 62.7825 22.4209 63.4205 22.4209C64.0227 22.4209 64.4964 22.6309 64.8414 23.0508L64.8951 22.5186H65.9645V27.6406C65.9645 28.334 65.748 28.8809 65.315 29.2812C64.8853 29.6816 64.3043 29.8818 63.5719 29.8818C63.1845 29.8818 62.8053 29.8005 62.4342 29.6377C62.0663 29.4782 61.7864 29.2682 61.5943 29.0078L62.1559 28.2949C62.5204 28.7279 62.9697 28.9443 63.5035 28.9443C63.8974 28.9443 64.2083 28.8369 64.4361 28.6221C64.664 28.4105 64.7779 28.098 64.7779 27.6846V27.3281C64.4361 27.709 63.9804 27.8994 63.4107 27.8994C62.7923 27.8994 62.2861 27.6536 61.8922 27.1621C61.5016 26.6706 61.3062 25.9902 61.3062 25.1211ZM62.4879 25.2236C62.4879 25.7542 62.5953 26.1725 62.8102 26.4785C63.0283 26.7812 63.3294 26.9326 63.7135 26.9326C64.192 26.9326 64.5468 26.7275 64.7779 26.3174V23.9932C64.5533 23.5928 64.2018 23.3926 63.7232 23.3926C63.3326 23.3926 63.0283 23.5472 62.8102 23.8564C62.5953 24.1657 62.4879 24.6214 62.4879 25.2236Z" fill="#333333"/>
<path d="M68.5033 22.5186L68.5375 23.0703C68.9086 22.6374 69.4164 22.4209 70.0609 22.4209C70.7673 22.4209 71.2507 22.6911 71.5111 23.2314C71.8952 22.6911 72.4356 22.4209 73.1322 22.4209C73.7149 22.4209 74.1479 22.582 74.4311 22.9043C74.7175 23.2266 74.864 23.7018 74.8705 24.3301V27.8018H73.684V24.3643C73.684 24.029 73.6107 23.7832 73.4643 23.627C73.3178 23.4707 73.0753 23.3926 72.7367 23.3926C72.4665 23.3926 72.2452 23.4658 72.0727 23.6123C71.9034 23.7555 71.7846 23.9443 71.7162 24.1787L71.7211 27.8018H70.5346V24.3252C70.5183 23.7035 70.2009 23.3926 69.5824 23.3926C69.1072 23.3926 68.7702 23.5863 68.5717 23.9736V27.8018H67.3852V22.5186H68.5033Z" fill="#333333"/>
<path d="M79.4455 27.8018C79.3934 27.7008 79.3479 27.5365 79.3088 27.3086C78.9312 27.7025 78.4689 27.8994 77.9221 27.8994C77.3915 27.8994 76.9585 27.748 76.6232 27.4453C76.288 27.1426 76.1203 26.7682 76.1203 26.3223C76.1203 25.7591 76.3286 25.3278 76.7453 25.0283C77.1652 24.7256 77.7642 24.5742 78.5422 24.5742H79.2697V24.2275C79.2697 23.9541 79.1932 23.736 79.0402 23.5732C78.8872 23.4072 78.6545 23.3242 78.342 23.3242C78.0718 23.3242 77.8505 23.3926 77.6779 23.5293C77.5054 23.6628 77.4191 23.8337 77.4191 24.042H76.2326C76.2326 23.7523 76.3286 23.4821 76.5207 23.2314C76.7128 22.9775 76.9732 22.779 77.302 22.6357C77.634 22.4925 78.0034 22.4209 78.4104 22.4209C79.0288 22.4209 79.522 22.5771 79.8898 22.8896C80.2577 23.1989 80.4465 23.6351 80.4562 24.1982V26.5811C80.4562 27.0563 80.523 27.4355 80.6564 27.7188V27.8018H79.4455ZM78.1418 26.9473C78.3762 26.9473 78.5959 26.8903 78.801 26.7764C79.0093 26.6624 79.1656 26.5094 79.2697 26.3174V25.3213H78.6301C78.1906 25.3213 77.8602 25.3978 77.6389 25.5508C77.4175 25.7038 77.3068 25.9202 77.3068 26.2002C77.3068 26.4281 77.3817 26.6104 77.5314 26.7471C77.6844 26.8805 77.8879 26.9473 78.1418 26.9473Z" fill="#333333"/>
<path fill-rule="evenodd" clip-rule="evenodd" d="M5.86881 1.10084C5.97749 0.465032 6.53004 0 7.17682 0C7.99873 0 8.62293 0.737548 8.48483 1.54551L8.40485 2.01339L13.1312 2.01339L13.0512 1.54551C12.9131 0.737549 13.5373 0 14.3592 0C15.006 0 15.5586 0.465034 15.6672 1.10084L20.2624 27.9842C20.4006 28.7922 19.7763 29.5297 18.9544 29.5297C18.3077 29.5297 17.7551 29.0647 17.6464 28.4289L17.2037 25.8385H12.114V27.1808C12.114 27.9221 11.5114 28.5231 10.768 28.5231C10.0246 28.5231 9.42201 27.9221 9.42201 27.1808V25.8385H4.3324L3.88962 28.4289C3.78094 29.0647 3.22839 29.5297 2.58161 29.5297C1.7597 29.5297 1.1355 28.7922 1.2736 27.9842L5.86881 1.10084Z" fill="#0BA3E3"/>
<path d="M0 6.04025C0 4.92828 0.903946 4.02686 2.01902 4.02686H19.5172C20.6323 4.02686 21.5362 4.92828 21.5362 6.04025V21.8118C21.5362 22.9238 20.6323 23.8252 19.5172 23.8252H2.01902C0.903946 23.8252 0 22.9238 0 21.8118V6.04025Z" fill="#30C2FF"/>
</svg>
