<svg width="362" height="249" viewBox="0 0 362 249" fill="none" xmlns="http://www.w3.org/2000/svg">
<rect width="362" height="241" fill="#30C2FF"/>
<g filter="url(#filter0_d)">
<path d="M292.828 49.0343H34.0765C31.2524 49.0343 28.9629 51.3238 28.9629 54.148V209.092C28.9629 211.916 31.2523 214.205 34.0765 214.205H292.828C295.652 214.205 297.941 211.916 297.941 209.092V54.148C297.941 51.3238 295.652 49.0343 292.828 49.0343Z" fill="white"/>
<path d="M304.311 207.286L288.916 207.144L285.909 215.902L276.572 215.816L292.824 173.327L300.96 173.402L316.523 216.183L307.186 216.097L304.311 207.286ZM291.351 200.05L302.005 200.148L296.794 184.14L291.351 200.05Z" fill="#FDD835"/>
<path d="M338.403 216.407C338.017 215.646 337.74 214.7 337.573 213.571C335.485 215.826 332.788 216.94 329.481 216.909C326.351 216.881 323.761 215.963 321.711 214.156C319.68 212.349 318.677 210.084 318.702 207.363C318.733 204.02 320.007 201.465 322.524 199.699C325.059 197.933 328.7 197.062 333.443 197.086L337.37 197.122L337.387 195.314C337.4 193.856 337.028 192.686 336.268 191.804C335.528 190.923 334.341 190.474 332.708 190.46C331.27 190.447 330.135 190.777 329.302 191.45C328.489 192.123 328.077 193.052 328.066 194.238L319.533 194.161C319.549 192.333 320.136 190.647 321.292 189.102C322.449 187.557 324.073 186.357 326.168 185.501C328.263 184.627 330.61 184.2 333.207 184.224C337.145 184.26 340.255 185.27 342.541 187.254C344.845 189.219 345.982 191.971 345.949 195.508L345.822 209.184C345.815 212.178 346.217 214.447 347.03 215.99L347.025 216.485L338.403 216.407ZM331.401 210.482C332.66 210.493 333.824 210.231 334.892 209.697C335.96 209.143 336.755 208.402 337.275 207.473L337.325 202.05L334.136 202.021C329.865 201.982 327.577 203.42 327.275 206.332L327.241 206.828C327.231 207.877 327.597 208.747 328.34 209.433C329.081 210.121 330.101 210.47 331.401 210.482Z" fill="#FDD835"/>
</g>
<path d="M282.543 74.3922H235.951C234.963 74.3922 234.162 75.1935 234.162 76.182V84.467C234.162 85.4555 234.963 86.2568 235.951 86.2568H282.543C283.531 86.2568 284.333 85.4555 284.333 84.467V76.182C284.333 75.1935 283.531 74.3922 282.543 74.3922Z" stroke="#F5F5F5"/>
<path d="M273.981 78.8515H249.818C248.842 78.8515 248.05 79.643 248.05 80.6195C248.05 81.5959 248.842 82.3875 249.818 82.3875H273.981C274.957 82.3875 275.749 81.5959 275.749 80.6195C275.749 79.643 274.957 78.8515 273.981 78.8515Z" fill="#E5E5E5"/>
<path d="M242.903 77.6728H239.055C238.49 77.6728 238.032 78.1307 238.032 78.6955V82.5434C238.032 83.1082 238.49 83.5661 239.055 83.5661H242.903C243.468 83.5661 243.926 83.1082 243.926 82.5434V78.6955C243.926 78.1307 243.468 77.6728 242.903 77.6728Z" fill="#E5E5E5"/>
<path d="M282.543 89.1259H235.951C234.963 89.1259 234.162 89.9273 234.162 90.9157V99.2008C234.162 100.189 234.963 100.991 235.951 100.991H282.543C283.531 100.991 284.333 100.189 284.333 99.2008V90.9157C284.333 89.9273 283.531 89.1259 282.543 89.1259Z" stroke="#F5F5F5"/>
<path d="M274.57 93.5843H249.818C248.842 93.5843 248.05 94.3759 248.05 95.3523C248.05 96.3288 248.842 97.1203 249.818 97.1203H274.57C275.547 97.1203 276.338 96.3288 276.338 95.3523C276.338 94.3759 275.547 93.5843 274.57 93.5843Z" fill="#E5E5E5"/>
<path d="M242.903 92.4061H239.055C238.49 92.4061 238.032 92.864 238.032 93.4289V97.2767C238.032 97.8416 238.49 98.2995 239.055 98.2995H242.903C243.468 98.2995 243.926 97.8416 243.926 97.2767V93.4289C243.926 92.864 243.468 92.4061 242.903 92.4061Z" fill="#E5E5E5"/>
<path d="M282.543 103.859H235.951C234.963 103.859 234.162 104.66 234.162 105.649V113.934C234.162 114.922 234.963 115.724 235.951 115.724H282.543C283.531 115.724 284.333 114.922 284.333 113.934V105.649C284.333 104.66 283.531 103.859 282.543 103.859Z" stroke="#F5F5F5"/>
<path d="M274.57 108.318H249.818C248.842 108.318 248.05 109.109 248.05 110.086C248.05 111.062 248.842 111.854 249.818 111.854H274.57C275.547 111.854 276.338 111.062 276.338 110.086C276.338 109.109 275.547 108.318 274.57 108.318Z" fill="#E5E5E5"/>
<path d="M242.903 107.139H239.055C238.49 107.139 238.032 107.597 238.032 108.162V112.01C238.032 112.575 238.49 113.032 239.055 113.032H242.903C243.468 113.032 243.926 112.575 243.926 112.01V108.162C243.926 107.597 243.468 107.139 242.903 107.139Z" fill="#E5E5E5"/>
<path d="M282.543 118.592H235.951C234.963 118.592 234.162 119.393 234.162 120.382V128.667C234.162 129.655 234.963 130.457 235.951 130.457H282.543C283.531 130.457 284.333 129.655 284.333 128.667V120.382C284.333 119.393 283.531 118.592 282.543 118.592Z" stroke="#F5F5F5"/>
<path d="M274.57 123.051H249.818C248.842 123.051 248.05 123.843 248.05 124.819C248.05 125.796 248.842 126.587 249.818 126.587H274.57C275.547 126.587 276.338 125.796 276.338 124.819C276.338 123.843 275.547 123.051 274.57 123.051Z" fill="#E5E5E5"/>
<path d="M242.903 121.873H239.055C238.49 121.873 238.032 122.33 238.032 122.895V126.743C238.032 127.308 238.49 127.766 239.055 127.766H242.903C243.468 127.766 243.926 127.308 243.926 126.743V122.895C243.926 122.33 243.468 121.873 242.903 121.873Z" fill="#E5E5E5"/>
<path d="M282.543 133.326H235.951C234.963 133.326 234.162 134.127 234.162 135.115V143.401C234.162 144.389 234.963 145.19 235.951 145.19H282.543C283.531 145.19 284.333 144.389 284.333 143.401V135.115C284.333 134.127 283.531 133.326 282.543 133.326Z" stroke="#F5F5F5"/>
<path d="M274.57 137.784H249.818C248.842 137.784 248.05 138.576 248.05 139.552C248.05 140.529 248.842 141.32 249.818 141.32H274.57C275.547 141.32 276.338 140.529 276.338 139.552C276.338 138.576 275.547 137.784 274.57 137.784Z" fill="#E5E5E5"/>
<path d="M242.903 136.606H239.055C238.49 136.606 238.032 137.063 238.032 137.628V141.476C238.032 142.041 238.49 142.499 239.055 142.499H242.903C243.468 142.499 243.926 142.041 243.926 141.476V137.628C243.926 137.063 243.468 136.606 242.903 136.606Z" fill="#E5E5E5"/>
<g filter="url(#filter1_d)">
<path d="M217.657 85.8981H77.5429C74.7187 85.8981 72.4292 88.1876 72.4292 91.0118V163.114C72.4292 165.939 74.7187 168.228 77.5429 168.228H217.657C220.481 168.228 222.771 165.939 222.771 163.114V91.0118C222.771 88.1876 220.481 85.8981 217.657 85.8981Z" fill="white"/>
</g>
<path d="M205.341 102.989H155.213C154.084 102.989 153.168 103.905 153.168 105.034V106.837C153.168 107.966 154.084 108.882 155.213 108.882H205.341C206.471 108.882 207.387 107.966 207.387 106.837V105.034C207.387 103.905 206.471 102.989 205.341 102.989Z" fill="#DDDDDD"/>
<path d="M189.429 113.007H155.213C154.084 113.007 153.168 113.923 153.168 115.052V115.676C153.168 116.806 154.084 117.722 155.213 117.722H189.429C190.559 117.722 191.475 116.806 191.475 115.676V115.052C191.475 113.923 190.559 113.007 189.429 113.007Z" fill="#DDDDDD"/>
<path d="M179.983 127.151H154.641C153.828 127.151 153.168 127.811 153.168 128.625C153.168 129.438 153.828 130.098 154.641 130.098H179.983C180.796 130.098 181.456 129.438 181.456 128.625C181.456 127.811 180.796 127.151 179.983 127.151Z" fill="#DDDDDD"/>
<path d="M189.117 133.634H154.936C153.96 133.634 153.168 134.425 153.168 135.402C153.168 136.378 153.96 137.17 154.936 137.17H189.117C190.094 137.17 190.885 136.378 190.885 135.402C190.885 134.425 190.094 133.634 189.117 133.634Z" fill="#DDDDDD"/>
<path d="M183.224 140.706H154.936C153.96 140.706 153.168 141.497 153.168 142.474C153.168 143.45 153.96 144.242 154.936 144.242H183.224C184.2 144.242 184.992 143.45 184.992 142.474C184.992 141.497 184.2 140.706 183.224 140.706Z" fill="#DDDDDD"/>
<path d="M178.804 147.778H154.641C153.828 147.778 153.168 148.437 153.168 149.251C153.168 150.065 153.828 150.724 154.641 150.724H178.804C179.618 150.724 180.277 150.065 180.277 149.251C180.277 148.437 179.618 147.778 178.804 147.778Z" fill="#DDDDDD"/>
<path d="M120.686 118.398C121.917 117.034 124.075 117.094 125.23 118.524L138.943 135.506C140.518 137.457 139.139 140.363 136.633 140.374L107.486 140.498C104.89 140.51 103.514 137.433 105.252 135.506L120.686 118.398Z" fill="#49CAFF"/>
<path opacity="0.8" d="M102.938 124.731C104.168 123.368 106.327 123.427 107.481 124.857L116.094 135.524C117.669 137.474 116.289 140.38 113.784 140.391L95.4759 140.47C92.8802 140.482 91.5041 137.405 93.2427 135.478L102.938 124.731Z" fill="#49CAFF"/>
<path d="M108.829 115.216C108.259 117.421 106.011 118.746 103.808 118.176C101.605 117.607 100.28 115.358 100.849 113.153C101.419 110.948 103.666 109.623 105.87 110.193C108.073 110.763 109.398 113.012 108.829 115.216Z" fill="#49CAFF"/>
<g filter="url(#filter2_d)">
<path d="M44.3042 78.1314C44.3042 77.6195 44.7192 77.2048 45.231 77.2048H58.2067C58.7186 77.2048 59.1338 77.6195 59.1338 78.1314V91.1073C59.1338 91.6192 58.7186 92.0344 58.2067 92.0344H45.231C44.7192 92.0344 44.3042 91.6192 44.3042 91.1073V78.1314Z" fill="white"/>
</g>
<g opacity="0.3">
<path fill-rule="evenodd" clip-rule="evenodd" d="M48.939 82.1487C48.939 81.9785 49.0773 81.8399 49.2479 81.8399H54.191C54.3618 81.8399 54.4999 81.9785 54.4999 82.1487V83.0758C54.4999 83.2466 54.3618 83.3847 54.191 83.3847C54.0207 83.3847 53.8821 83.2466 53.8821 83.0758V82.4581H49.5569V83.0758C49.5569 83.2466 49.4186 83.3847 49.2479 83.3847C49.0773 83.3847 48.939 83.2466 48.939 83.0758V82.1487Z" fill="black"/>
<path fill-rule="evenodd" clip-rule="evenodd" d="M50.4829 87.0912C50.4829 86.9204 50.6212 86.7823 50.7918 86.7823H52.6455C52.8161 86.7823 52.9544 86.9204 52.9544 87.0912C52.9544 87.262 52.8161 87.4001 52.6455 87.4001H50.7918C50.6212 87.4001 50.4829 87.262 50.4829 87.0912Z" fill="black"/>
<path fill-rule="evenodd" clip-rule="evenodd" d="M51.7196 81.8386C51.8902 81.8386 52.0285 81.9772 52.0285 82.1475V87.0908C52.0285 87.2616 51.8902 87.3997 51.7196 87.3997C51.549 87.3997 51.4106 87.2616 51.4106 87.0908V82.1475C51.4106 81.9772 51.549 81.8386 51.7196 81.8386Z" fill="black"/>
</g>
<g filter="url(#filter3_d)">
<path d="M44.3042 97.7048C44.3042 97.1929 44.7192 96.7782 45.231 96.7782H58.2067C58.7186 96.7782 59.1338 97.1929 59.1338 97.7048V110.681C59.1338 111.193 58.7186 111.608 58.2067 111.608H45.231C44.7192 111.608 44.3042 111.193 44.3042 110.681V97.7048Z" fill="white"/>
</g>
<g opacity="0.3">
<path fill-rule="evenodd" clip-rule="evenodd" d="M49.5562 101.721C49.3856 101.721 49.2473 101.86 49.2473 102.03V106.356C49.2473 106.526 49.3856 106.664 49.5562 106.664H53.8815C54.0523 106.664 54.1903 106.526 54.1903 106.356V102.03C54.1903 101.86 54.0523 101.721 53.8815 101.721H49.5562ZM48.6294 102.03C48.6294 101.519 49.0443 101.103 49.5562 101.103H53.8815C54.3934 101.103 54.8081 101.519 54.8081 102.03V106.356C54.8081 106.867 54.3934 107.282 53.8815 107.282H49.5562C49.0443 107.282 48.6294 106.867 48.6294 106.356V102.03Z" fill="black"/>
<path fill-rule="evenodd" clip-rule="evenodd" d="M50.6381 102.957C50.5528 102.957 50.4837 103.026 50.4837 103.111C50.4837 103.196 50.5528 103.265 50.6381 103.265C50.7234 103.265 50.7926 103.196 50.7926 103.111C50.7926 103.026 50.7234 102.957 50.6381 102.957ZM49.8657 103.111C49.8657 102.685 50.2116 102.339 50.6381 102.339C51.0647 102.339 51.4105 102.685 51.4105 103.111C51.4105 103.537 51.0647 103.884 50.6381 103.884C50.2116 103.884 49.8657 103.537 49.8657 103.111Z" fill="black"/>
<path fill-rule="evenodd" clip-rule="evenodd" d="M52.736 103.356C52.8567 103.235 53.0522 103.235 53.1729 103.356L54.7179 104.901C54.8385 105.022 54.8385 105.217 54.7179 105.338C54.5972 105.458 54.4013 105.458 54.2806 105.338L52.9545 104.012L49.7745 107.191C49.6539 107.312 49.4582 107.312 49.3376 107.191C49.2169 107.071 49.2169 106.875 49.3376 106.755L52.736 103.356Z" fill="black"/>
</g>
<g filter="url(#filter4_d)">
<path d="M44.3042 117.478C44.3042 116.966 44.7192 116.551 45.231 116.551H58.2067C58.7186 116.551 59.1338 116.966 59.1338 117.478V130.454C59.1338 130.966 58.7186 131.38 58.2067 131.38H45.231C44.7192 131.38 44.3042 130.966 44.3042 130.454V117.478Z" fill="white"/>
</g>
<path opacity="0.2" fill-rule="evenodd" clip-rule="evenodd" d="M49.4024 121.649C49.2318 121.649 49.0935 121.787 49.0935 121.957V126.283C49.0935 126.453 49.2318 126.592 49.4024 126.592H53.7277C53.8985 126.592 54.0366 126.453 54.0366 126.283V121.957C54.0366 121.787 53.8985 121.649 53.7277 121.649H49.4024ZM48.4756 121.957C48.4756 121.446 48.8906 121.031 49.4024 121.031H53.7277C54.2396 121.031 54.6543 121.446 54.6543 121.957V126.283C54.6543 126.795 54.2396 127.21 53.7277 127.21H49.4024C48.8906 127.21 48.4756 126.795 48.4756 126.283V121.957Z" fill="black"/>
<g filter="url(#filter5_d)">
<path d="M44.3042 137.25C44.3042 136.739 44.7192 136.324 45.231 136.324H58.2066C58.7185 136.324 59.1337 136.739 59.1337 137.25V150.226C59.1337 150.738 58.7185 151.153 58.2066 151.153H45.231C44.7192 151.153 44.3042 150.738 44.3042 150.226V137.25Z" fill="white"/>
</g>
<path opacity="0.3" fill-rule="evenodd" clip-rule="evenodd" d="M51.5068 140.633C51.5938 140.59 51.6962 140.59 51.7831 140.633L54.8725 142.178C54.9774 142.23 55.0433 142.337 55.0433 142.454C55.0433 142.571 54.9774 142.678 54.8725 142.731L51.7831 144.275C51.6962 144.319 51.5938 144.319 51.5068 144.275L48.4174 142.731C48.3127 142.678 48.2466 142.571 48.2466 142.454C48.2466 142.337 48.3127 142.23 48.4174 142.178L51.5068 140.633ZM49.2464 142.454L51.645 143.654L54.0436 142.454L51.645 141.255L49.2464 142.454Z" fill="black"/>
<path opacity="0.3" fill-rule="evenodd" clip-rule="evenodd" d="M48.2793 145.405C48.3556 145.253 48.5412 145.191 48.6938 145.267L51.6451 146.743L54.5965 145.267C54.7488 145.191 54.9345 145.253 55.0107 145.405C55.0874 145.558 55.0255 145.743 54.8726 145.82L51.7832 147.364C51.6963 147.408 51.5939 147.408 51.5069 147.364L48.4174 145.82C48.2648 145.743 48.203 145.558 48.2793 145.405Z" fill="black"/>
<path opacity="0.3" fill-rule="evenodd" clip-rule="evenodd" d="M48.2793 143.861C48.3556 143.708 48.5412 143.646 48.6938 143.722L51.6451 145.198L54.5965 143.722C54.7488 143.646 54.9345 143.708 55.0107 143.861C55.0874 144.013 55.0255 144.199 54.8726 144.275L51.7832 145.82C51.6963 145.864 51.5939 145.864 51.5069 145.82L48.4174 144.275C48.2648 144.199 48.203 144.013 48.2793 143.861Z" fill="black"/>
<path d="M28.9629 53.6818C28.9629 50.8576 31.2524 48.5681 34.0765 48.5681H292.828C295.652 48.5681 297.941 50.8576 297.941 53.6818V60.8409H28.9629V53.6818Z" fill="#F5F5F5"/>
<path d="M37.1451 56.7502C38.2747 56.7502 39.1905 55.8344 39.1905 54.7047C39.1905 53.575 38.2747 52.6593 37.1451 52.6593C36.0154 52.6593 35.0996 53.575 35.0996 54.7047C35.0996 55.8344 36.0154 56.7502 37.1451 56.7502Z" fill="#DDDDDD"/>
<path d="M45.3277 56.7502C46.4574 56.7502 47.3732 55.8344 47.3732 54.7047C47.3732 53.575 46.4574 52.6593 45.3277 52.6593C44.198 52.6593 43.2822 53.575 43.2822 54.7047C43.2822 55.8344 44.198 56.7502 45.3277 56.7502Z" fill="#DDDDDD"/>
<path d="M53.5088 56.7502C54.6385 56.7502 55.5543 55.8344 55.5543 54.7047C55.5543 53.575 54.6385 52.6593 53.5088 52.6593C52.3792 52.6593 51.4634 53.575 51.4634 54.7047C51.4634 55.8344 52.3792 56.7502 53.5088 56.7502Z" fill="#DDDDDD"/>
<path d="M237.082 114.516L190.226 104.057C187.999 103.569 186.537 101.273 187.094 99.0456L195.028 63.8311C195.516 61.604 197.812 60.1425 200.039 60.6993L246.896 71.1588C249.123 71.6462 250.584 73.9427 250.027 76.1697L242.094 111.384C241.606 113.611 239.379 115.003 237.082 114.516Z" fill="#91DFFF"/>
<path d="M222.983 83.0934C224.279 82.2235 226.046 82.7196 226.702 84.1371L234.493 100.971C235.388 102.905 233.65 105.015 231.582 104.505L207.531 98.5801C205.39 98.0523 204.891 95.2317 206.723 94.0029L222.983 83.0934Z" fill="white"/>
<path opacity="0.8" d="M207.042 84.643C208.339 83.7732 210.106 84.2687 210.762 85.6862L215.655 96.2597C216.55 98.1932 214.812 100.303 212.744 99.7938L197.637 96.0726C195.495 95.5448 194.997 92.7247 196.829 91.4953L207.042 84.643Z" fill="white"/>
<path d="M213.868 78.0181C212.942 79.7174 210.815 80.3454 209.117 79.4198C207.418 78.4947 206.792 76.3669 207.717 74.6672C208.642 72.9679 210.769 72.3404 212.467 73.2655C214.166 74.1906 214.793 76.3184 213.868 78.0181Z" fill="white"/>
<path opacity="0.2" d="M217.082 38.7891C203.024 38.2324 183.608 48.6715 190.497 74.1425C190.358 76.3005 191.611 77.8315 193.003 77.4137C194.395 76.9959 193.142 72.8902 193.142 72.8902C195.509 53.9606 199.893 50.6896 207.34 50.7593L224.807 50.6896C229.122 51.316 236.986 54.3781 238.169 69.4799L242.484 70.315C242.832 59.3889 240.188 39.6938 217.082 38.7891Z" fill="#5275A0"/>
<path d="M217.082 36.5622C203.024 36.0055 183.608 46.4445 190.497 71.9157L193.142 70.6633C195.509 51.7337 199.893 48.4628 207.34 48.5323L224.807 48.4628C229.122 49.0891 237.195 52.9167 238.378 68.0882H242.484C242.832 57.162 240.188 37.467 217.082 36.5622Z" fill="#FF5722"/>
<path d="M214.16 36.9796L212.072 41.5728C212.072 41.5728 212.35 44.1478 214.855 44.0782C217.361 44.0086 217.709 42.8255 217.709 42.8255L218.056 37.5364L214.16 36.9796Z" fill="#FFBE9E"/>
<path d="M224.946 33.1521C222.58 37.3973 221.536 38.65 218.404 39.2763C214.368 40.1114 209.844 37.3973 211.932 30.6467C213.672 25.1488 216.246 25.9839 218.822 26.1927C221.327 26.4711 227.521 28.6284 224.946 33.1521Z" fill="#FFBE9E"/>
<path d="M215.481 29.8813C214.855 29.5333 214.02 29.8117 213.533 30.3684C213.046 30.9252 212.767 31.6908 212.977 32.3867C212.001 32.3867 211.167 33.361 211.236 34.3353C210.54 32.8042 210.958 31.134 210.819 29.6029C210.68 28.0023 210.888 26.2625 211.862 25.0793C212.28 24.5922 212.836 24.1746 213.394 23.8962C215.62 22.7131 218.335 22.7131 220.562 23.8266C221.049 24.0354 222.163 24.8009 223.763 24.3834C226.825 23.6178 228.635 25.7056 226.756 27.6542C227.382 27.8631 228.009 28.1414 228.286 28.6981C228.356 28.8373 228.356 29.0462 228.286 29.1853C228.217 29.255 228.078 29.3245 228.009 29.3942C227.521 29.6029 226.894 29.6029 226.408 29.5333C226.617 29.742 227.73 29.8117 228.078 30.4381C228.983 32.1779 225.364 31.3428 224.807 31.134C225.433 31.2731 227.104 32.5955 226.547 33.5002C226.408 33.709 224.181 34.9617 221.815 32.2475C221.258 31.6211 220.562 30.9948 219.797 30.7861C219.17 30.6468 218.474 30.8556 217.847 31.0644C217.43 31.2036 216.247 31.8995 215.899 31.482C215.69 30.9252 216.178 30.2292 215.481 29.8813Z" fill="#D26552"/>
<path d="M238.796 68.1577C238.169 70.3153 237.543 70.524 238.309 70.8717C239.074 71.2199 239.701 70.0366 239.701 70.0366L243.18 70.7326C243.18 70.7326 242.415 68.436 241.858 68.1577C241.231 67.8793 238.796 68.1577 238.796 68.1577Z" fill="#FFBE9E"/>
<path d="M193.142 70.6634C193.629 71.7766 193.699 71.7767 194.324 73.1686C195.508 75.7433 192.724 79.9196 190.915 75.3956C190.428 74.1427 190.428 71.9157 190.428 71.9157L193.142 70.6634Z" fill="#FFBE9E"/>
<path d="M243.304 126.717L241.72 130.886L245.507 133.016L245.919 128.2L243.304 126.717Z" fill="#FFBE9E"/>
<path d="M245.677 116.376C236.978 120.134 240.527 129.32 245.816 128.276C248.391 127.72 249.714 119.437 249.714 119.437L245.677 116.376Z" fill="#FFBE9E"/>
<path d="M248.53 115.123C248.252 114.567 247.974 114.009 247.487 113.662C246.999 113.314 246.304 113.174 245.816 113.592C245.26 114.149 245.608 115.124 246.164 115.68C245.677 115.749 245.051 115.401 244.703 115.749C244.425 116.028 244.494 116.515 244.703 116.863C245.12 117.698 245.746 118.394 246.512 118.881C246.095 119.16 245.538 119.647 245.816 120.064C245.887 120.204 246.025 120.273 246.095 120.412C246.234 120.691 246.095 121.038 245.956 121.317C245.677 121.804 245.399 122.221 245.051 122.639C245.329 122.221 246.095 122.43 246.303 122.848C246.512 123.335 246.303 123.892 246.025 124.24C245.816 124.448 245.608 124.657 245.329 124.657C245.12 124.727 244.007 127.998 244.842 128.625C245.887 129.39 249.296 128.694 249.783 127.859C250.27 128.416 251.036 128.833 251.732 128.694C252.428 128.555 252.984 127.65 252.637 127.024C253.402 127.302 254.376 127.024 254.934 126.398C255.49 125.771 255.56 124.797 255.142 124.031C255.56 123.892 255.629 123.335 255.559 122.918C255.351 122.013 254.655 121.317 253.75 121.038C254.168 121.038 254.516 120.621 254.585 120.134C254.585 119.717 254.376 119.299 254.098 118.951C253.263 117.977 252.289 117.698 251.106 117.489C249.783 117.35 249.088 116.098 248.53 115.123Z" fill="#0C2340"/>
<path d="M258.726 211.539L263.345 210.699L263.975 214.688L257.047 216.158H252.218L258.726 211.539Z" fill="#0C2340"/>
<path d="M245.176 164.178C244.964 165.285 237.924 194.456 258.132 211.959L263.975 210.555C263.975 210.555 257.146 203.835 253.977 191.872C250.95 180.498 253.344 179.39 255.174 173.114C257.216 166.171 255.667 161.15 255.667 161.15L245.176 164.178Z" fill="#D8742A"/>
<path d="M240.25 214.898H244.239V218.678H238.361H231.012L240.25 214.898Z" fill="#0C2340"/>
<path d="M235.711 164.089C232.529 172.089 227.012 199.493 239.035 214.898H245.047C245.047 214.898 240.308 209.492 239.813 196.9C239.318 184.309 242.359 178.829 244.481 174.606C246.602 170.459 250.538 164.089 250.538 164.089H235.711Z" fill="#EF832B"/>
<path d="M231.619 114.079C230.018 119.577 229.531 129.808 237.395 133.913L242.684 132.661C242.684 132.661 233.22 127.72 235.238 115.123L231.619 114.079Z" fill="#30C2FF"/>
<path d="M217.014 111.279L221.136 110.761C221.136 110.761 220.647 128.948 240.489 130.501C255.649 131.684 256.837 161.773 256.837 161.773C251.946 165.248 243.772 166.283 233.223 165.544C233.223 165.544 233.921 144.03 232.245 138.19C232.245 138.115 215.757 132.645 217.014 111.279Z" fill="#30C2FF"/>
<path d="M212.132 108.163C211.436 108.999 214.359 109.973 217.143 111.295L220.692 110.878C220.692 110.878 220.762 110.182 220.692 109.416C220.623 108.651 220.274 108.233 219.857 108.86C219.439 109.486 217.63 109.695 216.794 109.137C215.959 108.512 212.828 107.398 212.132 108.163Z" fill="#FFBE9E"/>
<path d="M231.619 114.08C230.297 112.758 230.644 112.896 230.644 112.896L234.681 113.801C234.681 113.801 235.586 111.853 236.282 111.783C237.048 111.714 235.725 113.105 236.003 113.662C236.282 114.149 235.168 115.193 235.168 115.193L231.619 114.08Z" fill="#FFBE9E"/>
<path d="M39.542 136.289C39.542 136.289 40.483 139.111 40.9538 140.837C40.9538 140.837 36.2488 140.68 34.6807 138.641L36.4057 134.563L39.542 136.289Z" fill="#F7D3A9"/>
<path d="M45.0304 167.185C45.0304 167.185 52.4014 191.18 40.6393 214.392H37.1885C37.1885 214.392 44.0893 188.2 35.4634 166.871L45.0304 167.185Z" fill="#0C2340"/>
<path d="M39.8838 214.478H37.2244V216.998H41.1435H46.0425L39.8838 214.478Z" fill="white"/>
<path d="M18.3288 210.699L16.2292 209.859L14.9695 213.219L18.9586 214.269H22.9478L18.3288 210.699Z" fill="white"/>
<path d="M38.601 167.969C38.601 167.969 37.503 193.062 18.6824 210.941L15.3892 209.843C15.3892 209.843 30.7591 187.416 29.6611 164.518L38.601 167.969Z" fill="#0C2340"/>
<path d="M44.2945 112.249L45.0668 111.067L45.1526 110.936L45.4911 109.845L44.7489 109.547L44.5209 108.462C44.4304 108.028 43.819 107.816 43.5165 107.993C42.9106 108.346 42.3045 108.7 41.9614 109.225C41.8755 109.357 41.7042 109.619 41.7497 109.836L42.0279 111.704C42.0734 111.922 42.2501 112.224 42.5984 112.265L43.6891 112.602C43.6891 112.602 44.1231 112.511 44.2945 112.249Z" fill="#FFBE9E"/>
<path d="M29.1906 143.816C29.1906 143.816 38.7576 133.465 39.3853 129.7C40.0125 125.78 41.4243 111.507 41.4243 111.507L44.4042 112.135C44.4042 112.135 45.3453 132.681 44.5606 135.033C43.6195 137.386 37.8166 149.462 34.0526 150.559C30.4455 151.657 27.7794 147.894 29.1906 143.816Z" fill="#D8742A"/>
<path d="M42.5216 126.878C42.5216 126.878 44.7174 134.093 43.3063 135.974C41.8944 137.856 36.8755 136.131 34.9936 133.308C32.9546 130.328 32.6414 123.897 35.9345 123.271C39.3853 122.644 41.7375 124.054 42.5216 126.878Z" fill="#FFBE9E"/>
<path d="M29.6618 169.067C29.6618 169.067 27.7798 148.208 27.7798 142.562C27.7798 142.248 27.7798 142.092 27.7798 141.778C29.1909 138.17 32.7987 138.17 34.2099 138.484C35.6217 138.798 41.2677 140.523 41.2677 140.837C43.1497 142.248 44.7178 143.973 44.8747 144.287C44.8747 144.287 50.0506 155.109 45.5019 168.126L29.6618 169.067Z" fill="#EF832B"/>
<path d="M57.1074 112.45L57.4204 111.038V110.881L57.8913 109.94L58.6753 110.254L59.6167 109.626C60.0871 109.313 60.5576 109.626 60.7146 110.097C60.8711 110.724 61.0281 111.509 61.0281 111.979C61.0281 112.136 60.8711 112.45 60.7146 112.606L59.1462 113.861C58.9892 114.017 58.6753 114.017 58.3618 113.861L57.4204 113.391C57.2644 113.077 57.1074 112.763 57.1074 112.45Z" fill="#FFBE9E"/>
<path d="M38.914 142.247C38.914 142.247 50.206 133.779 51.4609 130.171C52.7151 126.564 56.636 112.606 56.636 112.606L59.4593 113.703C59.4593 113.703 56.793 134.093 55.5381 136.288C54.2837 138.484 46.442 149.305 42.521 149.776C38.757 150.09 36.7181 145.855 38.914 142.247Z" fill="#EF832B"/>
<path d="M34.5215 123.114C34.5215 123.114 40.3244 120.605 42.9905 125.78C44.4024 128.917 39.8543 125.937 38.9133 126.878C37.9723 127.819 40.0105 129.857 39.5404 130.642C38.9133 131.426 37.9722 129.388 37.3445 130.485C36.7174 131.583 38.2855 131.74 39.2265 133.152C40.1675 134.406 38.2855 136.288 39.8543 137.543C41.2654 138.641 45.3433 139.582 42.8336 145.855C40.3245 152.128 46.9115 153.697 44.0884 162.166C41.2654 170.635 22.7587 175.497 19.3085 165.303C15.8584 155.265 27.4643 152.755 26.6796 148.207C25.8955 143.66 23.3864 142.561 26.8365 138.17C30.2873 133.622 32.4825 131.112 31.3846 128.133C30.4436 125.153 33.2666 123.114 34.5215 123.114Z" fill="#544DB8"/>
<defs>
<filter id="filter0_d" x="4.96289" y="33.0343" width="366.067" height="215.875" filterUnits="userSpaceOnUse" color-interpolation-filters="sRGB">
<feFlood flood-opacity="0" result="BackgroundImageFix"/>
<feColorMatrix in="SourceAlpha" type="matrix" values="0 0 0 0 0 0 0 0 0 0 0 0 0 0 0 0 0 0 127 0"/>
<feOffset dy="8"/>
<feGaussianBlur stdDeviation="12"/>
<feColorMatrix type="matrix" values="0 0 0 0 0 0 0 0 0 0 0 0 0 0 0 0 0 0 0.15 0"/>
<feBlend mode="normal" in2="BackgroundImageFix" result="effect1_dropShadow"/>
<feBlend mode="normal" in="SourceGraphic" in2="effect1_dropShadow" result="shape"/>
</filter>
<filter id="filter1_d" x="56.4292" y="73.8981" width="182.341" height="114.33" filterUnits="userSpaceOnUse" color-interpolation-filters="sRGB">
<feFlood flood-opacity="0" result="BackgroundImageFix"/>
<feColorMatrix in="SourceAlpha" type="matrix" values="0 0 0 0 0 0 0 0 0 0 0 0 0 0 0 0 0 0 127 0"/>
<feOffset dy="4"/>
<feGaussianBlur stdDeviation="8"/>
<feColorMatrix type="matrix" values="0 0 0 0 0 0 0 0 0 0 0 0 0 0 0 0 0 0 0.15 0"/>
<feBlend mode="normal" in2="BackgroundImageFix" result="effect1_dropShadow"/>
<feBlend mode="normal" in="SourceGraphic" in2="effect1_dropShadow" result="shape"/>
</filter>
<filter id="filter2_d" x="14.3042" y="51.2048" width="74.8296" height="74.8296" filterUnits="userSpaceOnUse" color-interpolation-filters="sRGB">
<feFlood flood-opacity="0" result="BackgroundImageFix"/>
<feColorMatrix in="SourceAlpha" type="matrix" values="0 0 0 0 0 0 0 0 0 0 0 0 0 0 0 0 0 0 127 0"/>
<feOffset dy="4"/>
<feGaussianBlur stdDeviation="15"/>
<feColorMatrix type="matrix" values="0 0 0 0 0 0 0 0 0 0 0 0 0 0 0 0 0 0 0.2 0"/>
<feBlend mode="normal" in2="BackgroundImageFix" result="effect1_dropShadow"/>
<feBlend mode="normal" in="SourceGraphic" in2="effect1_dropShadow" result="shape"/>
</filter>
<filter id="filter3_d" x="14.3042" y="70.7782" width="74.8296" height="74.8296" filterUnits="userSpaceOnUse" color-interpolation-filters="sRGB">
<feFlood flood-opacity="0" result="BackgroundImageFix"/>
<feColorMatrix in="SourceAlpha" type="matrix" values="0 0 0 0 0 0 0 0 0 0 0 0 0 0 0 0 0 0 127 0"/>
<feOffset dy="4"/>
<feGaussianBlur stdDeviation="15"/>
<feColorMatrix type="matrix" values="0 0 0 0 0 0 0 0 0 0 0 0 0 0 0 0 0 0 0.2 0"/>
<feBlend mode="normal" in2="BackgroundImageFix" result="effect1_dropShadow"/>
<feBlend mode="normal" in="SourceGraphic" in2="effect1_dropShadow" result="shape"/>
</filter>
<filter id="filter4_d" x="14.3042" y="90.5507" width="74.8296" height="74.8296" filterUnits="userSpaceOnUse" color-interpolation-filters="sRGB">
<feFlood flood-opacity="0" result="BackgroundImageFix"/>
<feColorMatrix in="SourceAlpha" type="matrix" values="0 0 0 0 0 0 0 0 0 0 0 0 0 0 0 0 0 0 127 0"/>
<feOffset dy="4"/>
<feGaussianBlur stdDeviation="15"/>
<feColorMatrix type="matrix" values="0 0 0 0 0 0 0 0 0 0 0 0 0 0 0 0 0 0 0.2 0"/>
<feBlend mode="normal" in2="BackgroundImageFix" result="effect1_dropShadow"/>
<feBlend mode="normal" in="SourceGraphic" in2="effect1_dropShadow" result="shape"/>
</filter>
<filter id="filter5_d" x="14.3042" y="110.324" width="74.8295" height="74.8296" filterUnits="userSpaceOnUse" color-interpolation-filters="sRGB">
<feFlood flood-opacity="0" result="BackgroundImageFix"/>
<feColorMatrix in="SourceAlpha" type="matrix" values="0 0 0 0 0 0 0 0 0 0 0 0 0 0 0 0 0 0 127 0"/>
<feOffset dy="4"/>
<feGaussianBlur stdDeviation="15"/>
<feColorMatrix type="matrix" values="0 0 0 0 0 0 0 0 0 0 0 0 0 0 0 0 0 0 0.2 0"/>
<feBlend mode="normal" in2="BackgroundImageFix" result="effect1_dropShadow"/>
<feBlend mode="normal" in="SourceGraphic" in2="effect1_dropShadow" result="shape"/>
</filter>
</defs>
</svg>
