<svg width="450" height="450" viewBox="0 0 450 450" fill="none" xmlns="http://www.w3.org/2000/svg">
<mask id="mask0" mask-type="alpha" maskUnits="userSpaceOnUse" x="0" y="0" width="450" height="450">
<rect width="450" height="450" fill="white"/>
</mask>
<g mask="url(#mask0)">
<path d="M40.5827 354.171H403.653C405.218 354.171 406.499 352.886 406.499 351.317V143.004C406.499 131.875 397.533 122.887 386.431 122.887H57.9463C46.845 122.887 37.8785 131.875 37.8785 143.004V351.317C37.7362 352.886 39.0171 354.171 40.5827 354.171Z" fill="#34414D"/>
<path fill-rule="evenodd" clip-rule="evenodd" d="M54.71 345.114H390.002V139.734H54.71V345.114Z" fill="#82D8FF"/>
<path d="M312.796 199.867C325.406 199.867 335.494 189.515 335.494 176.786H289.93C289.93 189.515 300.186 199.867 312.796 199.867Z" fill="#CB1B38"/>
<path d="M357.69 199.188C369.963 199.188 379.715 189.175 379.715 176.956H335.496C335.496 189.175 345.416 199.188 357.69 199.188Z" fill="#EDB900"/>
<path d="M401.739 199.188C414.013 199.188 423.765 189.175 423.765 176.956H379.546C379.714 189.175 389.634 199.188 401.739 199.188Z" fill="#CB1B38"/>
<path d="M43.4472 199.867C56.0572 199.867 66.1451 189.515 66.1451 176.786H20.5811C20.5811 189.515 30.8372 199.867 43.4472 199.867Z" fill="#CB1B38"/>
<path d="M89.0141 199.867C101.624 199.867 111.88 189.515 111.88 176.786H66.1479C66.1479 189.515 76.4041 199.867 89.0141 199.867Z" fill="#EDB900"/>
<path d="M133.902 199.188C146.175 199.188 155.927 189.175 155.927 176.956H111.708C111.708 189.175 121.628 199.188 133.902 199.188Z" fill="#CB1B38"/>
<path d="M267.236 199.867C279.846 199.867 289.934 189.515 289.934 176.786H244.37C244.37 189.515 254.626 199.867 267.236 199.867Z" fill="#EDB900"/>
<path d="M178.12 199.188C190.394 199.188 200.146 189.175 200.146 176.956H155.927C155.927 189.175 165.847 199.188 178.12 199.188Z" fill="#EDB900"/>
<path d="M222.341 199.188C234.615 199.188 244.366 189.175 244.366 176.956H200.147C200.147 189.175 210.067 199.188 222.341 199.188Z" fill="#CB1B38"/>
<path d="M424.101 177.465H20.5811L54.5439 139.789H390.138L424.101 177.465Z" fill="#ED1C24"/>
<path d="M66.1479 177.465L89.0141 139.789H124.995L111.712 177.465H66.1479Z" fill="#FFC107"/>
<path d="M155.927 177.465L163.661 139.789H199.642L200.146 177.465H155.927Z" fill="#FFC107"/>
<path d="M244.365 177.465L237.808 139.789H276.311L289.929 177.465H244.365Z" fill="#FFC107"/>
<path d="M335.496 177.465L316.161 139.789H353.15L379.715 177.465H335.496Z" fill="#FFC107"/>
<path d="M43.7125 376.999H405.928C419.165 376.999 429.839 366.298 429.839 353.029V352.03H19.8019V353.029C19.8019 366.298 30.4763 376.999 43.7125 376.999Z" fill="#F5F5F5"/>
<path d="M194.012 358.736H262.897C266.456 358.736 269.444 355.883 269.444 352.173H187.608C187.465 355.883 190.454 358.736 194.012 358.736Z" fill="#BABABA"/>
<path opacity="0.2" d="M40.866 369.58H408.775C419.165 369.58 427.846 362.018 429.554 352.03H429.839V355.883C429.839 367.582 420.445 376.999 408.775 376.999H40.866C29.1954 376.999 19.8019 367.582 19.8019 355.883V352.03H20.0866C21.7945 362.018 30.4763 369.58 40.866 369.58Z" fill="#94C0FF"/>
<path d="M315.836 297.379L325.797 301.63C325.797 301.63 334.957 294.189 346.119 295.779C355.299 297.089 360.46 301.62 363.65 309.591L389.993 324.262L390.213 344.654L260.6 340.403L228.197 314.371L247.849 294.189L315.836 297.379Z" fill="#E3E3E3"/>
<path d="M228.062 283.958C228.882 286.098 229.762 288.258 230.702 290.439H230.722C230.982 290.419 231.242 290.409 231.502 290.399C231.792 290.389 232.082 290.389 232.372 290.389C232.742 290.389 233.112 290.409 233.482 290.429C233.602 290.439 233.722 290.449 233.842 290.459C234.083 290.479 234.333 290.499 234.563 290.529C234.713 290.549 234.853 290.569 234.993 290.589C235.203 290.619 235.423 290.649 235.633 290.679C235.783 290.709 235.933 290.739 236.083 290.769C236.283 290.809 236.483 290.849 236.683 290.889C236.843 290.919 236.993 290.969 237.143 290.999C237.333 291.049 237.523 291.089 237.713 291.149C237.873 291.189 238.023 291.239 238.173 291.289C238.353 291.349 238.543 291.399 238.723 291.459C238.873 291.509 239.033 291.569 239.183 291.619C239.363 291.679 239.533 291.749 239.713 291.819C239.863 291.879 240.023 291.939 240.173 292.009C240.343 292.079 240.513 292.149 240.683 292.229C240.833 292.299 240.983 292.369 241.133 292.439C241.293 292.519 241.463 292.599 241.623 292.679C241.773 292.759 241.913 292.829 242.063 292.909C242.223 292.999 242.383 293.089 242.533 293.179C242.673 293.259 242.813 293.349 242.963 293.429C243.123 293.529 243.273 293.619 243.423 293.719C243.563 293.809 243.693 293.899 243.833 293.989C243.983 294.089 244.133 294.199 244.283 294.299C244.413 294.389 244.544 294.489 244.674 294.589C244.824 294.699 244.964 294.819 245.114 294.929C245.234 295.029 245.364 295.129 245.484 295.229C245.634 295.349 245.774 295.479 245.914 295.599C246.034 295.699 246.144 295.799 246.254 295.909C246.404 296.039 246.544 296.179 246.684 296.319C246.784 296.419 246.894 296.519 246.994 296.629C247.144 296.779 247.284 296.929 247.424 297.089C247.494 297.169 247.574 297.239 247.644 297.319C247.664 297.339 247.684 297.359 247.704 297.379C247.814 297.499 247.914 297.619 248.014 297.739C248.124 297.869 248.234 297.999 248.344 298.129C248.444 298.249 248.534 298.369 248.634 298.499C248.744 298.639 248.844 298.769 248.944 298.909C249.034 299.029 249.124 299.159 249.214 299.289C249.314 299.429 249.414 299.569 249.514 299.719C249.604 299.849 249.684 299.979 249.764 300.109C249.854 300.259 249.954 300.409 250.044 300.56C250.124 300.69 250.194 300.82 250.274 300.96C250.364 301.11 250.444 301.27 250.534 301.42C250.574 301.49 250.614 301.57 250.654 301.64H325.801C325.801 301.64 325.861 298.359 323.751 295.369C323.661 295.279 323.571 295.179 323.501 295.099C323.441 295.039 323.381 294.979 323.321 294.909C323.141 294.729 322.961 294.559 322.771 294.389C322.751 294.369 322.721 294.339 322.701 294.319C322.481 294.129 322.261 293.939 322.041 293.759C321.991 293.719 321.951 293.689 321.901 293.649C321.721 293.509 321.541 293.379 321.361 293.249C321.281 293.189 321.191 293.139 321.111 293.079C320.961 292.979 320.811 292.879 320.651 292.779C320.551 292.719 320.451 292.659 320.351 292.599C320.211 292.509 320.061 292.429 319.921 292.349C319.811 292.289 319.701 292.229 319.601 292.179C319.461 292.109 319.321 292.029 319.171 291.959C319.061 291.909 318.941 291.849 318.831 291.799C318.691 291.739 318.551 291.669 318.401 291.609C318.281 291.559 318.161 291.509 318.041 291.469C317.901 291.409 317.751 291.359 317.61 291.309C317.49 291.269 317.36 291.219 317.24 291.179C317.09 291.129 316.95 291.089 316.8 291.049C316.68 291.009 316.55 290.979 316.42 290.939C316.27 290.899 316.12 290.869 315.97 290.829C315.8 290.799 315.65 290.769 315.5 290.729C315.38 290.709 315.25 290.679 315.13 290.659C315.01 290.639 314.89 290.619 314.76 290.599C314.59 290.569 314.42 290.559 314.25 290.539C314.14 290.529 314.03 290.509 313.92 290.499C313.7 290.479 313.48 290.469 313.26 290.459C313.2 290.459 313.13 290.449 313.07 290.449C312.79 290.439 312.5 290.439 312.22 290.449C311.91 290.459 311.6 290.469 311.29 290.499C309.7 290.629 308.1 291.019 306.549 291.689C306.049 291.909 305.569 292.149 305.099 292.409C305.599 290.479 305.489 288.388 304.639 286.418C304.519 286.148 304.389 285.888 304.249 285.628C304.209 285.548 304.159 285.478 304.109 285.398C304.009 285.228 303.899 285.058 303.789 284.888C303.729 284.808 303.679 284.718 303.619 284.638C303.509 284.478 303.389 284.328 303.269 284.188C303.209 284.118 303.149 284.038 303.089 283.968C302.939 283.798 302.779 283.628 302.609 283.468C302.579 283.438 302.549 283.398 302.509 283.368C302.309 283.178 302.109 282.998 301.889 282.828C301.819 282.778 301.759 282.728 301.689 282.678C301.539 282.558 301.379 282.448 301.219 282.348C301.139 282.288 301.049 282.238 300.969 282.188C300.809 282.088 300.659 281.998 300.489 281.918C300.409 281.878 300.329 281.828 300.239 281.788C300.029 281.688 299.819 281.588 299.599 281.498C299.559 281.488 299.529 281.468 299.489 281.448C299.239 281.348 298.979 281.258 298.729 281.188C298.649 281.168 298.569 281.148 298.489 281.128C298.299 281.078 298.119 281.028 297.929 280.998C297.839 280.978 297.739 280.958 297.649 280.948C297.459 280.918 297.279 280.888 297.089 280.868C296.999 280.858 296.919 280.848 296.829 280.838C296.578 280.818 296.318 280.808 296.058 280.808C296.038 280.808 296.018 280.808 296.008 280.808C295.728 280.808 295.458 280.828 295.178 280.858C295.098 280.868 295.008 280.878 294.928 280.888C294.728 280.918 294.538 280.938 294.338 280.978C294.238 280.998 294.148 281.018 294.048 281.038C293.858 281.078 293.658 281.128 293.468 281.188C293.378 281.218 293.298 281.238 293.208 281.268C292.938 281.358 292.658 281.458 292.388 281.568C292.358 281.578 292.338 281.588 292.308 281.608C292.108 281.698 291.918 281.788 291.738 281.888C291.678 281.918 291.608 281.958 291.548 281.988C291.398 282.068 291.258 282.148 291.118 282.238C291.058 282.278 290.998 282.318 290.938 282.358C290.788 282.458 290.648 282.558 290.498 282.668C290.458 282.698 290.418 282.728 290.368 282.758C290.188 282.898 290.018 283.038 289.858 283.188C289.808 283.228 289.768 283.268 289.728 283.318C289.608 283.438 289.478 283.558 289.368 283.678C289.318 283.728 289.268 283.788 289.218 283.838C289.108 283.958 288.998 284.088 288.898 284.208C288.858 284.258 288.818 284.308 288.778 284.358C288.638 284.538 288.508 284.718 288.378 284.908C288.368 284.928 288.358 284.948 288.338 284.968C288.228 285.138 288.118 285.308 288.018 285.488C287.988 285.548 287.958 285.598 287.928 285.658C287.848 285.808 287.768 285.958 287.698 286.108C287.668 286.168 287.638 286.218 287.618 286.278C287.528 286.478 287.438 286.678 287.368 286.888V286.898C287.288 287.108 287.218 287.328 287.158 287.548C287.138 287.598 287.128 287.658 287.118 287.708C287.068 287.878 287.028 288.048 286.998 288.218C286.978 288.328 286.948 288.438 286.928 288.558C282.677 285.178 276.757 284.188 271.426 286.488C270.376 286.938 269.416 287.498 268.526 288.138L266.716 287.888C266.476 287.058 266.186 286.238 265.836 285.418C265.706 285.118 265.566 284.818 265.426 284.528C265.386 284.438 265.336 284.348 265.285 284.258C265.185 284.058 265.075 283.858 264.975 283.658C264.915 283.558 264.865 283.458 264.805 283.358C264.695 283.168 264.585 282.988 264.475 282.798C264.415 282.698 264.355 282.608 264.305 282.518C264.175 282.318 264.055 282.128 263.925 281.938C263.875 281.868 263.825 281.798 263.775 281.718C263.595 281.458 263.405 281.198 263.215 280.948C263.195 280.928 263.185 280.908 263.165 280.888C262.985 280.658 262.805 280.438 262.615 280.208C262.555 280.128 262.485 280.058 262.425 279.988C262.305 279.848 262.175 279.708 262.055 279.568C261.745 279.227 261.425 278.897 261.085 278.577C261.025 278.517 260.955 278.457 260.895 278.407C260.595 278.127 260.285 277.857 259.965 277.587C259.895 277.537 259.835 277.477 259.765 277.427C259.405 277.137 259.045 276.867 258.675 276.607C258.585 276.547 258.505 276.487 258.415 276.427C258.045 276.177 257.675 275.937 257.295 275.707C257.275 275.697 257.255 275.677 257.225 275.667C256.825 275.437 256.415 275.217 256.005 275.007C255.915 274.957 255.815 274.917 255.725 274.867C255.315 274.667 254.895 274.477 254.474 274.307C254.414 274.287 254.354 274.257 254.294 274.237C253.904 274.087 253.514 273.947 253.114 273.807C253.034 273.777 252.944 273.747 252.864 273.727C252.424 273.587 251.984 273.467 251.544 273.357C251.454 273.337 251.364 273.317 251.274 273.297C250.854 273.197 250.434 273.117 250.004 273.047C249.954 273.037 249.914 273.027 249.864 273.017C249.404 272.947 248.944 272.897 248.474 272.847C248.374 272.837 248.274 272.827 248.174 272.827C247.704 272.797 247.234 272.767 246.764 272.767C246.734 272.767 246.694 272.767 246.664 272.767C246.214 272.767 245.764 272.787 245.314 272.807C245.214 272.817 245.124 272.817 245.024 272.827C244.554 272.867 244.093 272.917 243.623 272.977C243.543 272.987 243.453 273.007 243.373 273.017C242.943 273.087 242.513 273.167 242.083 273.257C242.013 273.277 241.943 273.287 241.873 273.297C241.403 273.407 240.943 273.537 240.483 273.677C240.383 273.707 240.283 273.737 240.183 273.777C239.713 273.927 239.243 274.097 238.773 274.287C234.563 266.806 231.307 215.093 229.236 201.472L218.116 210.454C218.426 212.854 220.001 262.986 228.062 283.958Z" fill="#E3E3E3"/>
<path d="M250.535 301.41C250.455 301.25 250.365 301.1 250.275 300.95C250.195 300.82 250.125 300.69 250.045 300.55C249.955 300.4 249.865 300.25 249.765 300.1C249.685 299.97 249.595 299.84 249.515 299.71C249.415 299.57 249.315 299.42 249.215 299.279C249.125 299.149 249.035 299.029 248.945 298.899C248.845 298.759 248.735 298.629 248.635 298.489C248.535 298.369 248.445 298.239 248.345 298.119C248.235 297.989 248.125 297.859 248.015 297.729C247.915 297.609 247.805 297.489 247.705 297.369C247.615 297.269 247.525 297.169 247.425 297.069C247.285 296.919 247.145 296.759 246.995 296.609C246.895 296.509 246.785 296.409 246.685 296.299C246.545 296.159 246.405 296.029 246.255 295.889C246.145 295.789 246.025 295.689 245.915 295.579C245.775 295.449 245.625 295.329 245.485 295.209C245.365 295.109 245.235 295.009 245.115 294.909C244.965 294.789 244.825 294.679 244.675 294.569C244.545 294.469 244.415 294.379 244.285 294.279C244.135 294.169 243.985 294.069 243.835 293.969C243.695 293.879 243.565 293.789 243.425 293.699C243.275 293.599 243.115 293.499 242.965 293.409C242.825 293.319 242.685 293.239 242.535 293.159C242.375 293.069 242.225 292.979 242.065 292.889C241.915 292.809 241.775 292.729 241.625 292.659C241.465 292.579 241.295 292.499 241.135 292.419C240.985 292.349 240.834 292.279 240.684 292.209C240.514 292.129 240.344 292.059 240.174 291.989C240.024 291.929 239.874 291.859 239.714 291.799C239.544 291.729 239.364 291.669 239.184 291.599C239.034 291.539 238.874 291.489 238.724 291.439C238.544 291.379 238.364 291.319 238.174 291.269C238.024 291.219 237.864 291.179 237.714 291.129C237.524 291.079 237.334 291.029 237.144 290.979C236.994 290.939 236.834 290.899 236.684 290.869C236.484 290.829 236.284 290.789 236.084 290.749C235.934 290.719 235.784 290.689 235.634 290.659C235.424 290.619 235.204 290.599 234.994 290.569C234.854 290.549 234.704 290.529 234.564 290.509C234.324 290.479 234.084 290.459 233.844 290.439C233.724 290.429 233.604 290.419 233.484 290.409C233.114 290.389 232.754 290.369 232.374 290.369C232.084 290.369 231.794 290.369 231.504 290.379C231.244 290.389 230.984 290.399 230.724 290.419H230.704C229.763 288.238 228.883 286.078 228.063 283.938C220.002 262.966 219.852 207.755 219.552 205.325L229.933 204.985L209.732 205.645C209.732 205.645 204.681 258.996 198.89 274.987C197.74 278.177 196.47 281.358 195.07 284.388C189.35 279.338 180.619 279.268 174.818 284.508C173.448 285.748 172.358 287.178 171.538 288.728C166.147 286.168 159.527 286.938 154.816 291.179C154.586 291.389 154.366 291.599 154.156 291.819C153.756 290.709 153.146 289.659 152.306 288.738C148.866 284.928 142.975 284.628 139.165 288.068C137.165 289.869 136.144 292.349 136.104 294.839C130.804 292.559 124.443 293.399 119.883 297.519C118.553 298.719 117.483 300.1 116.683 301.6H250.645C250.605 301.56 250.575 301.48 250.535 301.41Z" fill="white"/>
<path d="M181.214 289.999C181.024 289.939 180.834 289.859 180.634 289.799C180.434 289.749 180.254 289.689 180.054 289.669L179.764 289.619L179.474 289.599C179.284 289.579 179.084 289.599 178.894 289.599C178.704 289.609 178.514 289.639 178.324 289.659C178.134 289.709 177.954 289.729 177.774 289.789C177.594 289.849 177.414 289.899 177.244 289.979C177.063 290.039 176.903 290.129 176.743 290.219C176.583 290.299 176.433 290.419 176.273 290.509C176.133 290.629 175.983 290.729 175.853 290.859C175.723 290.989 175.583 291.099 175.473 291.249C175.413 291.319 175.353 291.379 175.293 291.449L175.143 291.669C175.033 291.809 174.963 291.979 174.863 292.129L174.833 292.189C174.843 292.179 174.823 292.209 174.843 292.169V292.179L174.833 292.199L174.813 292.229L174.753 292.369C174.713 292.459 174.653 292.559 174.643 292.629C174.593 292.789 174.533 292.939 174.493 293.109C174.443 293.279 174.423 293.449 174.383 293.619L174.173 294.639L173.273 294.009C173.093 293.879 172.913 293.739 172.723 293.619L172.433 293.449L172.293 293.359L172.253 293.339C172.223 293.319 172.293 293.359 172.283 293.359H172.273L172.253 293.349L172.173 293.309L171.833 293.149L171.663 293.069L171.513 293.019C171.313 292.949 171.133 292.869 170.903 292.819L170.583 292.729C170.473 292.699 170.363 292.689 170.253 292.669C170.143 292.649 170.033 292.629 169.923 292.619L169.593 292.589C169.373 292.559 169.153 292.579 168.933 292.579C168.713 292.579 168.493 292.619 168.273 292.639C168.053 292.679 167.833 292.719 167.623 292.769C167.413 292.839 167.193 292.879 166.993 292.969C166.783 293.049 166.572 293.119 166.382 293.229L166.082 293.379C165.982 293.429 165.892 293.499 165.802 293.549C165.612 293.659 165.432 293.789 165.252 293.929C165.062 294.049 164.912 294.219 164.742 294.359C164.572 294.509 164.432 294.679 164.272 294.839C164.132 295.009 164.002 295.199 163.852 295.369L163.472 295.849L162.982 295.589C162.842 295.509 162.702 295.419 162.552 295.359C162.412 295.279 162.252 295.229 162.102 295.169C161.942 295.119 161.792 295.069 161.632 295.029C161.472 294.989 161.312 294.969 161.142 294.939C160.972 294.929 160.812 294.899 160.642 294.909C160.472 294.899 160.312 294.909 160.142 294.919C159.972 294.939 159.802 294.949 159.642 294.989C159.472 295.019 159.312 295.069 159.142 295.109C158.982 295.169 158.812 295.219 158.662 295.289C158.502 295.349 158.352 295.429 158.192 295.509C158.112 295.549 158.042 295.599 157.962 295.639L157.822 295.679L157.782 295.659C157.792 295.649 157.762 295.679 157.792 295.649L157.812 295.689L157.802 295.729L157.752 295.779L157.312 296.129C157.172 296.249 157.072 296.379 156.942 296.499C156.882 296.559 156.812 296.619 156.762 296.689L156.602 296.909C156.502 297.059 156.362 297.199 156.292 297.36L156.021 297.85C156.071 297.67 156.121 297.49 156.171 297.299C156.212 297.109 156.312 296.949 156.382 296.769L156.502 296.509C156.542 296.419 156.602 296.339 156.662 296.259C156.772 296.099 156.872 295.919 157.002 295.769L157.382 295.359L157.432 295.309L157.452 295.279L157.462 295.269L157.432 295.229L157.422 295.179L157.432 295.169L157.572 295.109C157.652 295.049 157.732 294.989 157.812 294.939C157.972 294.819 158.142 294.709 158.312 294.609C158.482 294.499 158.672 294.419 158.852 294.329C159.042 294.249 159.222 294.169 159.422 294.109C159.612 294.039 159.812 293.999 160.012 293.949C160.212 293.919 160.412 293.869 160.622 293.859C160.822 293.839 161.032 293.839 161.242 293.839C161.452 293.849 161.652 293.859 161.862 293.899C162.072 293.919 162.272 293.969 162.472 294.019C162.672 294.079 162.872 294.129 163.072 294.209C163.272 294.279 163.462 294.369 163.652 294.459L162.782 294.679C162.932 294.449 163.082 294.219 163.242 293.999C163.422 293.789 163.582 293.569 163.772 293.369C163.972 293.179 164.152 292.969 164.372 292.809C164.582 292.629 164.792 292.459 165.032 292.309C165.152 292.239 165.262 292.159 165.382 292.089L165.742 291.899C165.982 291.759 166.242 291.669 166.492 291.559C166.743 291.449 167.013 291.389 167.283 291.309C167.553 291.249 167.823 291.189 168.093 291.139C168.363 291.109 168.643 291.069 168.923 291.069C169.203 291.069 169.473 291.049 169.753 291.089L170.163 291.129C170.303 291.149 170.433 291.179 170.573 291.199C170.713 291.229 170.843 291.249 170.983 291.279L171.383 291.399C171.643 291.469 171.913 291.589 172.183 291.689L172.383 291.769L172.543 291.859L172.873 292.039L172.953 292.079L173.023 292.119L173.063 292.149L173.233 292.259L173.573 292.489C173.793 292.649 173.993 292.839 174.213 293.009L173.103 293.399C173.163 293.179 173.203 292.949 173.283 292.739C173.353 292.529 173.443 292.309 173.553 292.089C173.603 291.969 173.653 291.899 173.703 291.809L173.783 291.679L173.833 291.589L173.883 291.519C174.013 291.339 174.133 291.139 174.283 290.979L174.503 290.729C174.583 290.649 174.663 290.569 174.743 290.499C174.903 290.339 175.083 290.209 175.253 290.069C175.433 289.929 175.633 289.829 175.813 289.709C176.013 289.619 176.203 289.509 176.413 289.429C176.623 289.349 176.823 289.269 177.033 289.229C177.144 289.199 177.244 289.169 177.354 289.149L177.674 289.099C177.884 289.059 178.104 289.069 178.314 289.059C178.524 289.069 178.744 289.069 178.954 289.099C179.164 289.129 179.374 289.159 179.574 289.219L179.874 289.299L180.164 289.409C180.364 289.469 180.544 289.589 180.724 289.679C180.884 289.759 181.044 289.889 181.214 289.999Z" fill="#E3E3E3"/>
<path d="M230.366 299.2L230.136 298.73C230.046 298.58 229.956 298.44 229.866 298.29C229.766 298.15 229.656 298.01 229.556 297.88C229.446 297.75 229.325 297.63 229.215 297.5C229.095 297.38 228.965 297.27 228.845 297.16C228.715 297.05 228.575 296.96 228.445 296.86L228.025 296.6L227.585 296.38L227.125 296.21L226.655 296.08C226.495 296.05 226.335 296.02 226.175 296C226.015 295.99 225.855 295.97 225.695 295.96C225.535 295.96 225.375 295.96 225.215 295.97C225.055 295.99 224.895 296 224.745 296.02L224.275 296.11L223.825 296.25L223.385 296.38L223.175 295.93L222.955 295.46C222.875 295.31 222.785 295.16 222.705 295.009C222.515 294.719 222.325 294.439 222.105 294.179L222.025 294.079V294.059L222.035 294.039C222.045 294.049 222.005 294.029 222.035 294.069L222.005 294.049L221.955 293.999L221.765 293.799C221.635 293.669 221.505 293.519 221.385 293.429L221.015 293.109L220.595 292.819C220.465 292.719 220.305 292.639 220.165 292.559C220.015 292.469 219.875 292.389 219.715 292.329C219.555 292.259 219.405 292.189 219.255 292.129L218.774 291.969C218.614 291.919 218.444 291.889 218.284 291.849C218.124 291.799 217.954 291.779 217.784 291.759C217.454 291.699 217.114 291.699 216.774 291.679C216.434 291.699 216.094 291.699 215.764 291.759L215.514 291.789L215.264 291.849C215.104 291.889 214.934 291.919 214.774 291.979L214.294 292.139C214.134 292.199 213.984 292.279 213.834 292.339C213.674 292.399 213.534 292.489 213.384 292.569C213.244 292.659 213.084 292.729 212.954 292.829L212.534 293.119L212.504 293.139H212.494C212.474 293.149 212.514 293.119 212.504 293.129L212.494 293.139L212.444 293.189L212.334 293.279L212.124 293.459C212.014 293.579 211.894 293.679 211.774 293.799C211.664 293.929 211.534 294.039 211.434 294.179C211.324 294.309 211.214 294.439 211.124 294.589C211.024 294.729 210.934 294.869 210.844 295.019C210.664 295.31 210.504 295.62 210.364 295.94L209.964 296.82L209.434 296.08L209.394 296.03L209.414 295.99L209.444 295.96C209.484 296.01 209.454 295.97 209.464 295.98L209.454 295.97H209.404L209.304 295.88L209.124 295.68C209.064 295.61 209.004 295.56 208.954 295.51L208.784 295.35C208.684 295.239 208.533 295.15 208.413 295.039C208.293 294.929 208.143 294.859 208.013 294.759C207.883 294.669 207.733 294.599 207.583 294.519C207.443 294.439 207.283 294.389 207.133 294.319C206.983 294.259 206.823 294.219 206.663 294.169C206.503 294.129 206.343 294.099 206.173 294.059C206.013 294.029 205.843 294.019 205.673 293.999C205.503 293.989 205.333 293.989 205.163 293.979L204.653 294.019L204.143 294.099L203.643 294.229L203.153 294.409L202.673 294.639L202.213 294.909L202.613 294.549L203.053 294.229C203.203 294.139 203.373 294.049 203.523 293.959C203.683 293.879 203.853 293.809 204.023 293.739C204.193 293.679 204.373 293.619 204.553 293.569L205.103 293.459C205.293 293.439 205.473 293.419 205.663 293.399C205.853 293.399 206.043 293.389 206.223 293.399C206.413 293.419 206.603 293.429 206.783 293.459C206.973 293.499 207.163 293.529 207.343 293.579C207.523 293.639 207.713 293.679 207.893 293.749C208.073 293.829 208.253 293.889 208.423 293.979C208.594 294.069 208.774 294.149 208.934 294.259C209.094 294.369 209.254 294.469 209.414 294.599L209.644 294.799C209.724 294.869 209.804 294.929 209.854 294.999L210.044 295.19L210.134 295.28L210.154 295.3L210.164 295.31L210.194 295.34L210.204 295.35L210.244 295.4L209.314 295.54C209.444 295.16 209.594 294.789 209.784 294.439C209.874 294.259 209.974 294.089 210.084 293.919C210.184 293.749 210.304 293.579 210.424 293.419C210.534 293.249 210.674 293.109 210.804 292.949C210.934 292.789 211.094 292.649 211.234 292.489L211.424 292.279L211.514 292.169L211.564 292.119L211.574 292.109L211.624 292.099L211.664 292.089L212.154 291.719C212.314 291.589 212.494 291.499 212.664 291.389C212.834 291.279 213.014 291.179 213.194 291.099C213.374 291.009 213.564 290.919 213.744 290.839L214.314 290.629C214.504 290.559 214.704 290.519 214.904 290.469L215.204 290.399L215.504 290.359C215.904 290.289 216.314 290.269 216.724 290.259C217.134 290.279 217.534 290.289 217.944 290.359C218.144 290.389 218.344 290.419 218.544 290.479C218.744 290.529 218.944 290.569 219.135 290.639L219.705 290.849C219.895 290.929 220.075 291.019 220.255 291.109C220.445 291.189 220.615 291.299 220.785 291.399C220.955 291.509 221.135 291.599 221.295 291.729L221.775 292.099L222.235 292.529C222.405 292.679 222.505 292.819 222.625 292.959L222.805 293.169L222.855 293.219L222.875 293.249L222.895 293.279L222.905 293.289L222.915 293.309L223.005 293.429C223.245 293.749 223.455 294.099 223.645 294.449C223.735 294.629 223.825 294.809 223.905 294.989L224.115 295.55L223.455 295.23L224.015 295.099C224.205 295.069 224.395 295.049 224.585 295.029C224.775 295.019 224.965 295.019 225.155 295.019C225.345 295.029 225.535 295.05 225.725 295.07C225.915 295.1 226.095 295.14 226.285 295.17C226.465 295.22 226.645 295.27 226.825 295.33C227.005 295.4 227.175 295.47 227.345 295.54C227.515 295.62 227.675 295.71 227.835 295.8L228.295 296.11C228.435 296.23 228.585 296.34 228.725 296.46C228.855 296.59 228.985 296.72 229.115 296.85C229.235 296.99 229.345 297.13 229.456 297.28C229.556 297.43 229.656 297.58 229.756 297.73C229.836 297.89 229.926 298.05 230.006 298.21C230.066 298.38 230.136 298.54 230.196 298.71L230.366 299.2Z" fill="#E3E3E3"/>
<path d="M125.668 300.57L116.688 301.64C116.688 301.64 86.2947 283.328 55.0217 312.901L55.0117 344.774H390.304C390.304 344.774 382.243 322.352 355.15 322.352C328.058 322.352 325.938 330.853 325.938 330.853C325.938 330.853 315.847 303.23 288.754 315.451C288.754 315.451 278.133 292.079 250.54 301.42C250.54 301.41 136.299 294.189 125.668 300.57Z" fill="white"/>
<path d="M123.848 313.581C123.578 313.511 123.318 313.401 123.058 313.341C122.788 313.291 122.537 313.221 122.267 313.191L121.867 313.141L121.467 313.131C121.207 313.111 120.937 313.151 120.677 313.161C120.417 313.181 120.157 313.231 119.907 313.271C119.657 313.341 119.407 313.381 119.167 313.481C118.927 313.571 118.687 313.651 118.457 313.761C118.217 313.851 118.007 313.991 117.787 314.111C117.567 314.231 117.377 314.391 117.167 314.531C116.987 314.701 116.777 314.841 116.617 315.031C116.447 315.211 116.267 315.381 116.127 315.571C116.057 315.671 115.967 315.761 115.897 315.861L115.697 316.171C115.557 316.371 115.467 316.601 115.347 316.811L115.307 316.891V316.901C115.317 316.891 115.287 316.932 115.317 316.871V316.881L115.307 316.901L115.287 316.951L115.207 317.142C115.157 317.262 115.087 317.412 115.067 317.512C115.007 317.722 114.937 317.932 114.887 318.172C114.827 318.402 114.807 318.642 114.767 318.872L114.527 320.272L113.277 319.462C113.017 319.292 112.767 319.112 112.507 318.962L112.106 318.742L111.906 318.632L111.856 318.602H111.846C111.806 318.582 111.896 318.622 111.886 318.622L111.876 318.612L111.846 318.602L111.726 318.552L111.256 318.352L111.026 318.252L110.816 318.192C110.546 318.112 110.286 318.002 109.976 317.952L109.536 317.852C109.386 317.822 109.236 317.812 109.086 317.792C108.936 317.772 108.786 317.742 108.636 317.742L108.186 317.722C107.886 317.692 107.586 317.732 107.286 317.742C106.986 317.752 106.686 317.822 106.386 317.862C106.096 317.922 105.796 317.992 105.506 318.072C105.226 318.182 104.926 318.252 104.656 318.382C104.376 318.502 104.096 318.612 103.836 318.762L103.436 318.982C103.306 319.062 103.186 319.152 103.056 319.232C102.796 319.392 102.566 319.582 102.326 319.772C102.076 319.952 101.876 320.182 101.655 320.392C101.435 320.602 101.255 320.852 101.045 321.072C100.855 321.312 100.695 321.572 100.505 321.822L100.015 322.502L99.3353 322.172C99.1353 322.072 98.9452 321.962 98.7452 321.882C98.5452 321.782 98.3352 321.722 98.1252 321.642C97.9051 321.582 97.6951 321.512 97.4751 321.482C97.2551 321.432 97.035 321.412 96.805 321.382C96.575 321.372 96.355 321.352 96.125 321.362C95.8949 321.362 95.6749 321.382 95.4449 321.402C95.2149 321.442 94.9849 321.462 94.7648 321.522C94.5348 321.562 94.3248 321.642 94.0948 321.712C93.8847 321.802 93.6547 321.872 93.4547 321.982C93.2347 322.072 93.0347 322.192 92.8246 322.312C92.7246 322.372 92.6246 322.442 92.5246 322.512L92.3346 322.572L92.2746 322.542C92.2846 322.532 92.2546 322.562 92.2946 322.522L92.3246 322.572L92.3046 322.622L92.2446 322.692L91.6745 323.192C91.4845 323.352 91.3545 323.542 91.1845 323.712C91.1045 323.802 91.0145 323.882 90.9445 323.982L90.7344 324.292C90.6044 324.502 90.4244 324.692 90.3344 324.922L89.9844 325.602C90.0344 325.352 90.0944 325.102 90.1544 324.852C90.2044 324.592 90.3244 324.362 90.4144 324.122L90.5644 323.762C90.6244 323.642 90.6944 323.532 90.7644 323.412C90.9045 323.192 91.0345 322.932 91.1945 322.732L91.6845 322.152L91.7445 322.082L91.7745 322.042L91.7845 322.032L91.7445 321.982L91.7245 321.912L91.7445 321.892L91.9346 321.802C92.0346 321.712 92.1546 321.632 92.2546 321.552C92.4646 321.382 92.6846 321.222 92.9147 321.072C93.1347 320.912 93.3847 320.792 93.6247 320.662C93.8747 320.552 94.1248 320.422 94.3848 320.332C94.6448 320.222 94.9148 320.162 95.1749 320.082C95.4449 320.022 95.7149 319.952 95.9949 319.932C96.275 319.892 96.555 319.882 96.835 319.872C97.1151 319.882 97.3951 319.882 97.6751 319.912C97.9551 319.932 98.2352 319.992 98.5152 320.042C98.7852 320.112 99.0652 320.172 99.3353 320.272C99.6053 320.352 99.8653 320.472 100.135 320.582L98.9552 320.922C99.1452 320.612 99.3353 320.282 99.5453 319.972C99.7753 319.682 99.9753 319.362 100.235 319.092C100.495 318.822 100.735 318.532 101.015 318.292C101.295 318.042 101.575 317.792 101.886 317.582C102.036 317.472 102.186 317.362 102.346 317.262L102.836 316.981C103.156 316.781 103.496 316.631 103.836 316.471C104.176 316.311 104.536 316.211 104.896 316.081C105.256 315.981 105.626 315.891 105.986 315.811C106.356 315.761 106.726 315.681 107.106 315.671C107.486 315.661 107.856 315.621 108.236 315.651L108.796 315.681C108.986 315.691 109.166 315.731 109.356 315.751C109.546 315.781 109.726 315.801 109.916 315.841L110.466 315.981C110.826 316.061 111.196 316.201 111.566 316.341L111.846 316.441L112.076 316.551L112.537 316.771L112.647 316.831L112.747 316.881L112.807 316.922L113.047 317.072L113.527 317.362C113.837 317.572 114.127 317.812 114.417 318.032L112.927 318.632C112.997 318.332 113.037 318.022 113.137 317.722C113.217 317.432 113.337 317.122 113.467 316.821C113.527 316.661 113.597 316.561 113.657 316.431L113.757 316.251L113.827 316.131L113.887 316.031C114.057 315.771 114.207 315.511 114.407 315.271L114.697 314.911C114.797 314.791 114.907 314.691 115.007 314.581C115.217 314.351 115.447 314.161 115.677 313.971C115.907 313.771 116.177 313.631 116.417 313.461C116.687 313.321 116.937 313.171 117.217 313.051C117.497 312.941 117.767 312.821 118.057 312.741C118.197 312.701 118.337 312.651 118.487 312.621L118.927 312.541C119.217 312.481 119.517 312.481 119.797 312.451C120.087 312.451 120.377 312.441 120.667 312.471C120.957 312.501 121.237 312.531 121.517 312.601L121.937 312.701L122.337 312.841C122.607 312.921 122.868 313.061 123.118 313.171C123.378 313.281 123.608 313.431 123.848 313.581Z" fill="#E3E3E3"/>
<path d="M211.902 333.483L211.502 332.693C211.352 332.443 211.192 332.193 211.042 331.953C210.871 331.713 210.691 331.493 210.521 331.263C210.331 331.043 210.131 330.833 209.941 330.623C209.741 330.423 209.521 330.242 209.311 330.052C209.091 329.872 208.861 329.712 208.641 329.542L207.931 329.102L207.181 328.732L206.411 328.442L205.621 328.222C205.351 328.172 205.081 328.122 204.811 328.082C204.541 328.062 204.271 328.032 204.001 328.022C203.731 328.032 203.461 328.022 203.191 328.042C202.921 328.072 202.651 328.092 202.391 328.122L201.611 328.282L200.851 328.512L200.1 328.742L199.74 327.972L199.37 327.182C199.23 326.922 199.08 326.682 198.94 326.422C198.63 325.932 198.3 325.462 197.93 325.022L197.8 324.852L197.81 324.812L197.82 324.782C197.83 324.802 197.76 324.762 197.83 324.832L197.78 324.802L197.69 324.722L197.36 324.382C197.14 324.162 196.92 323.912 196.71 323.752L196.09 323.222L195.39 322.732C195.16 322.552 194.9 322.432 194.66 322.292C194.41 322.152 194.17 322.002 193.9 321.902C193.64 321.792 193.38 321.662 193.12 321.562L192.31 321.292C192.04 321.202 191.76 321.152 191.48 321.082C191.21 321.002 190.92 320.962 190.64 320.922C190.08 320.812 189.509 320.812 188.939 320.782C188.369 320.812 187.799 320.812 187.239 320.912L186.819 320.972L186.409 321.072C186.139 321.142 185.849 321.182 185.589 321.282L184.779 321.552C184.509 321.652 184.259 321.782 183.999 321.892C183.729 321.992 183.489 322.142 183.239 322.292C182.999 322.442 182.729 322.552 182.509 322.732L181.809 323.232L181.769 323.262L181.759 323.272H181.749C181.719 323.292 181.779 323.242 181.769 323.252L181.749 323.272L181.659 323.352L181.479 323.502L181.119 323.802C180.929 324.002 180.729 324.172 180.529 324.382C180.339 324.592 180.129 324.792 179.959 325.022C179.779 325.242 179.589 325.462 179.428 325.702C179.258 325.932 179.098 326.182 178.948 326.422C178.638 326.912 178.388 327.432 178.148 327.962L177.478 329.452L176.588 328.212L176.528 328.122L176.568 328.052L176.618 327.992C176.688 328.072 176.638 328.012 176.648 328.032L176.638 328.022L176.548 328.032L176.378 327.882L176.078 327.552C175.978 327.422 175.878 327.352 175.788 327.262L175.508 326.992C175.338 326.802 175.088 326.652 174.888 326.482C174.678 326.302 174.438 326.172 174.218 326.012C173.998 325.852 173.738 325.742 173.498 325.612C173.258 325.482 172.988 325.392 172.738 325.282C172.478 325.182 172.208 325.112 171.948 325.022C171.678 324.952 171.398 324.912 171.128 324.842C170.848 324.792 170.568 324.772 170.288 324.732C170.008 324.722 169.718 324.712 169.438 324.702L168.577 324.762L167.727 324.902L166.887 325.122L166.067 325.432L165.267 325.812L164.497 326.272L165.167 325.662L165.907 325.122C166.167 324.962 166.437 324.822 166.707 324.662C166.987 324.532 167.267 324.412 167.557 324.282C167.847 324.182 168.147 324.082 168.447 323.992L169.368 323.802C169.678 323.772 169.998 323.732 170.308 323.702C170.618 323.702 170.938 323.682 171.258 323.702C171.578 323.732 171.898 323.752 172.208 323.802C172.518 323.872 172.838 323.912 173.148 324.002C173.448 324.102 173.768 324.172 174.068 324.292C174.368 324.422 174.678 324.522 174.958 324.672C175.238 324.832 175.548 324.962 175.808 325.142C176.078 325.332 176.358 325.492 176.608 325.712L176.998 326.042C177.128 326.152 177.258 326.262 177.358 326.372L177.668 326.692L177.828 326.852L177.868 326.892L177.878 326.902L177.918 326.952L177.938 326.972L178.018 327.062L176.458 327.302C176.688 326.672 176.938 326.042 177.258 325.442C177.408 325.142 177.578 324.842 177.768 324.562C177.938 324.272 178.138 323.992 178.348 323.722C178.538 323.442 178.768 323.192 178.988 322.922C179.208 322.662 179.469 322.412 179.719 322.152L180.039 321.802L180.189 321.612L180.279 321.532L180.299 321.512L180.379 321.502L180.439 321.482L181.259 320.862C181.519 320.642 181.829 320.492 182.119 320.312C182.409 320.132 182.699 319.952 183.019 319.822C183.329 319.681 183.639 319.521 183.949 319.391L184.919 319.041C185.239 318.921 185.579 318.861 185.909 318.771L186.409 318.651L186.919 318.571C187.599 318.451 188.279 318.431 188.969 318.401C189.659 318.431 190.34 318.451 191.02 318.581C191.36 318.631 191.7 318.681 192.03 318.781C192.36 318.871 192.7 318.931 193.02 319.051L193.99 319.401C194.31 319.531 194.61 319.691 194.92 319.831C195.23 319.972 195.53 320.152 195.82 320.332C196.11 320.512 196.41 320.672 196.68 320.892L197.49 321.512L198.27 322.232C198.55 322.482 198.72 322.712 198.94 322.952L199.25 323.312L199.33 323.402L199.37 323.442L199.41 323.492L199.42 323.502L199.43 323.512L199.45 323.542L199.6 323.752C200.01 324.292 200.36 324.872 200.681 325.472C200.821 325.782 200.981 326.082 201.111 326.392L201.471 327.332L200.361 326.792L201.311 326.582C201.631 326.532 201.951 326.502 202.271 326.462C202.591 326.442 202.911 326.442 203.231 326.442C203.551 326.452 203.871 326.492 204.191 326.522C204.511 326.572 204.821 326.642 205.131 326.692C205.441 326.772 205.741 326.872 206.041 326.952C206.341 327.062 206.631 327.182 206.921 327.302C207.201 327.442 207.481 327.592 207.751 327.742L208.531 328.262C208.771 328.462 209.021 328.652 209.251 328.852C209.471 329.072 209.691 329.282 209.901 329.502C210.101 329.742 210.291 329.972 210.481 330.223C210.651 330.483 210.821 330.733 210.982 330.993C211.122 331.263 211.272 331.523 211.402 331.803C211.512 332.083 211.622 332.363 211.722 332.643L211.902 333.483Z" fill="#E3E3E3"/>
<path d="M300.273 333.663L299.873 332.873C299.723 332.623 299.563 332.373 299.413 332.133C299.243 331.893 299.063 331.673 298.893 331.443C298.703 331.223 298.503 331.013 298.313 330.803C298.113 330.603 297.893 330.423 297.683 330.233C297.463 330.053 297.233 329.893 297.013 329.723L296.303 329.283L295.553 328.913L294.783 328.623L293.993 328.402C293.723 328.352 293.453 328.302 293.183 328.262C292.913 328.242 292.643 328.212 292.373 328.202C292.103 328.212 291.833 328.202 291.563 328.222C291.293 328.262 291.023 328.272 290.763 328.302L289.982 328.462L289.222 328.693L288.472 328.923L288.112 328.152L287.742 327.362C287.602 327.102 287.452 326.862 287.312 326.602C287.002 326.112 286.672 325.642 286.302 325.202L286.172 325.032L286.182 324.992L286.192 324.962C286.202 324.982 286.132 324.942 286.202 325.012L286.152 324.982L286.062 324.902L285.732 324.562C285.512 324.342 285.292 324.092 285.082 323.932L284.462 323.402L283.762 322.912C283.532 322.732 283.272 322.612 283.032 322.472C282.782 322.332 282.542 322.182 282.272 322.082C282.012 321.972 281.752 321.842 281.492 321.742L280.682 321.472C280.412 321.382 280.132 321.332 279.851 321.262C279.581 321.182 279.291 321.142 279.011 321.102C278.451 320.992 277.881 320.992 277.311 320.962C276.741 320.992 276.171 320.992 275.611 321.092L275.191 321.152L274.781 321.252C274.511 321.322 274.221 321.362 273.961 321.462L273.151 321.732C272.881 321.832 272.631 321.962 272.371 322.072C272.101 322.172 271.861 322.322 271.611 322.472C271.371 322.622 271.101 322.732 270.881 322.912L270.181 323.402L270.141 323.432L270.131 323.442H270.121C270.091 323.462 270.151 323.412 270.141 323.422L270.121 323.442L270.031 323.522L269.851 323.672L269.491 323.972C269.3 324.172 269.1 324.342 268.9 324.552C268.71 324.762 268.5 324.962 268.33 325.192C268.15 325.412 267.96 325.632 267.81 325.872C267.64 326.102 267.48 326.352 267.33 326.592C267.02 327.082 266.77 327.602 266.53 328.132L265.86 329.623L264.97 328.382L264.91 328.292L264.95 328.222L265 328.162C265.07 328.242 265.02 328.182 265.03 328.202L265.02 328.192L264.93 328.202L264.76 328.052L264.46 327.722C264.36 327.592 264.26 327.522 264.17 327.432L263.89 327.162C263.71 326.972 263.47 326.822 263.27 326.652C263.06 326.472 262.82 326.342 262.6 326.182C262.38 326.022 262.12 325.912 261.88 325.782C261.64 325.652 261.37 325.562 261.12 325.452C260.86 325.352 260.59 325.282 260.33 325.192C260.06 325.122 259.78 325.082 259.51 325.012C259.23 324.962 258.949 324.942 258.669 324.902C258.389 324.882 258.099 324.882 257.819 324.872L256.959 324.932L256.109 325.072L255.269 325.292L254.449 325.602L253.649 325.982L252.879 326.442L253.549 325.832L254.289 325.292C254.549 325.132 254.819 324.992 255.089 324.832C255.369 324.702 255.649 324.582 255.939 324.452C256.229 324.352 256.529 324.252 256.829 324.162L257.749 323.972C258.059 323.942 258.379 323.902 258.689 323.872C258.999 323.872 259.32 323.852 259.64 323.872C259.96 323.902 260.28 323.922 260.59 323.972C260.9 324.042 261.22 324.082 261.53 324.172C261.83 324.272 262.15 324.342 262.45 324.462C262.75 324.592 263.06 324.692 263.34 324.842C263.62 325.002 263.93 325.132 264.19 325.312C264.46 325.502 264.74 325.662 264.99 325.882L265.38 326.212C265.51 326.322 265.64 326.432 265.74 326.542L266.05 326.862L266.21 327.022L266.25 327.062L266.26 327.072L266.3 327.122L266.32 327.142L266.4 327.232L264.84 327.472C265.07 326.842 265.32 326.212 265.64 325.612C265.79 325.312 265.96 325.012 266.15 324.732C266.32 324.442 266.52 324.162 266.73 323.892C266.92 323.612 267.15 323.362 267.37 323.092C267.59 322.832 267.85 322.582 268.1 322.322L268.42 321.972L268.57 321.782L268.66 321.702L268.68 321.682L268.76 321.672L268.82 321.652L269.641 321.042C269.901 320.822 270.211 320.672 270.501 320.482C270.791 320.302 271.081 320.122 271.401 319.992C271.711 319.852 272.021 319.692 272.331 319.562L273.301 319.212C273.621 319.092 273.961 319.032 274.291 318.942L274.791 318.822L275.301 318.742C275.981 318.622 276.661 318.602 277.351 318.572C278.031 318.602 278.721 318.622 279.401 318.752C279.741 318.802 280.082 318.852 280.412 318.952C280.742 319.042 281.082 319.102 281.402 319.222L282.372 319.572C282.692 319.702 282.992 319.862 283.302 320.002C283.612 320.142 283.912 320.322 284.202 320.502C284.492 320.682 284.792 320.842 285.062 321.062L285.872 321.682L286.652 322.402C286.932 322.652 287.102 322.882 287.322 323.122L287.632 323.482L287.712 323.572L287.752 323.612L287.792 323.662L287.802 323.672L287.812 323.682L287.832 323.712L287.982 323.922C288.392 324.462 288.742 325.042 289.062 325.642C289.202 325.952 289.362 326.252 289.492 326.562L289.852 327.502L288.742 326.962L289.692 326.752C290.012 326.702 290.332 326.672 290.653 326.632C290.973 326.612 291.293 326.612 291.613 326.612C291.933 326.622 292.253 326.662 292.573 326.692C292.893 326.742 293.203 326.812 293.513 326.862C293.823 326.942 294.123 327.032 294.423 327.122C294.723 327.232 295.013 327.352 295.303 327.472C295.583 327.612 295.863 327.762 296.133 327.912L296.913 328.432C297.153 328.632 297.403 328.823 297.633 329.023C297.853 329.243 298.073 329.453 298.283 329.673C298.483 329.913 298.673 330.143 298.863 330.393C299.033 330.653 299.203 330.903 299.363 331.153C299.503 331.423 299.653 331.683 299.783 331.963C299.893 332.243 300.003 332.523 300.103 332.803L300.273 333.663Z" fill="#E3E3E3"/>
<path d="M238.548 222.756C238.548 239.562 219.912 262.191 219.912 262.191C219.912 262.191 201.276 239.562 201.276 222.756C201.276 205.95 209.615 201.338 219.912 201.338C230.2 201.338 238.548 205.962 238.548 222.756Z" fill="#FF9800"/>
<path d="M232.464 218.036C232.464 228.749 219.913 243.174 219.913 243.174C219.913 243.174 207.362 228.749 207.362 218.036C207.362 207.322 212.979 204.38 219.913 204.38C226.838 204.391 232.464 207.322 232.464 218.036Z" fill="#FFC107"/>
<path d="M227.139 213.75C227.139 221.096 219.917 231.004 219.917 231.004C219.917 231.004 212.686 221.109 212.686 213.75C212.686 206.392 215.92 204.38 219.917 204.38C223.913 204.38 227.139 206.404 227.139 213.75Z" fill="#FFEB3B"/>
<path d="M204.698 171.323C204.698 171.323 179.166 184.724 179.166 213.768C179.166 213.768 180.758 216.961 183.311 213.128C185.863 209.295 188.095 198.766 204.378 198.766L204.698 171.323Z" fill="#CB1B38"/>
<path d="M234.821 171.323C234.821 171.323 260.352 184.724 260.352 213.768C260.352 213.768 258.751 216.961 256.199 213.128C253.647 209.295 251.415 198.766 235.132 198.766L234.821 171.323Z" fill="#CB1B38"/>
<path fill-rule="evenodd" clip-rule="evenodd" d="M204.484 201.71C196.632 189.34 191.42 167.713 191.42 143.107C191.42 131.217 193.421 120.021 196.417 110.23H243.102C246.091 120.021 248.103 131.217 248.103 143.107C248.103 167.713 242.898 189.34 235.036 201.71H204.484Z" fill="white"/>
<path d="M204.697 201.754C204.306 201.754 203.986 202.074 203.986 202.465V205.8C203.986 206.192 204.306 206.512 204.697 206.512H219.762V201.745H204.697V201.754Z" fill="#34414D"/>
<path d="M234.807 201.754H219.76V206.521H234.807C235.198 206.521 235.527 206.201 235.527 205.81V202.475C235.518 202.075 235.198 201.754 234.807 201.754Z" fill="#34414D"/>
<path fill-rule="evenodd" clip-rule="evenodd" d="M219.698 148.722C212.506 148.722 206.685 142.893 206.685 135.711C206.685 128.529 212.506 122.7 219.698 122.7C226.883 122.7 232.707 128.529 232.707 135.711C232.707 142.901 226.877 148.722 219.698 148.722ZM219.698 126.798C214.769 126.798 210.783 130.785 210.783 135.711C210.783 140.63 214.769 144.624 219.698 144.624C224.614 144.624 228.609 140.637 228.609 135.711C228.609 130.785 224.614 126.798 219.698 126.798Z" fill="#34414D"/>
<path d="M219.764 146.521C213.839 146.521 209.046 141.728 209.046 135.805C209.046 129.883 213.839 125.089 219.764 125.089C225.674 125.089 230.477 129.883 230.477 135.805C230.477 141.719 225.674 146.521 219.764 146.521Z" fill="#00B9F2"/>
<path d="M196.421 110.23C203.092 88.3984 214.67 73.5475 219.764 73.5475C224.864 73.5475 236.432 88.3984 243.11 110.23H196.421Z" fill="#CB1B38"/>
<path d="M220.739 179.274C220.659 179.247 220.578 179.238 220.49 179.238H220.472H219.751V215.058H220.552H220.57C221.014 215.058 221.388 214.694 221.388 214.249V213.164L221.414 211.59L223.673 182.786C223.691 179.852 221.237 179.398 220.739 179.274Z" fill="#CB1B38"/>
<path d="M218.955 179.229H218.937C218.848 179.229 218.768 179.247 218.688 179.265C218.546 179.3 218.386 179.363 218.226 179.452C217.336 179.745 215.825 180.519 215.825 182.804L218.083 211.634L218.11 213.093V214.178C218.11 214.516 218.324 214.809 218.617 214.934C218.733 214.996 218.866 215.032 219.008 215.032H219.026H219.746V179.211H218.955V179.229Z" fill="#CB1B38"/>
</g>
</svg>
