<svg width="120" height="120" viewBox="0 0 120 120" fill="none" xmlns="http://www.w3.org/2000/svg">
<rect width="120" height="120" fill="white"/>
<path d="M47.5004 105C42.8127 105 39 101.187 39 96.5C39 91.8125 42.8127 88 47.5004 88C52.1873 88 56 91.8125 56 96.5C56 101.187 52.1873 105 47.5004 105Z" fill="#34414D"/>
<path d="M87.5 105C82.8133 105 79 101.187 79 96.5C79 91.8125 82.8133 88 87.5 88C92.1867 88 96 91.8125 96 96.5C96 101.187 92.1867 105 87.5 105Z" fill="#34414D"/>
<path d="M98.7639 83.7899C98.7639 85.4679 97.4602 86.7864 95.8016 86.7864H39.1132C34.1945 86.7864 30.2246 82.771 30.2246 77.7976C30.2246 73.2439 33.5426 69.4681 37.9275 68.929C38.2832 68.8088 38.6982 68.8088 39.1132 68.8088C39.8237 68.8088 40.535 69.1092 41.0095 69.5882L39.2313 74.8019C39.1726 74.8019 39.1726 74.8019 39.1132 74.8019C37.4539 74.8019 36.1501 76.1195 36.1501 77.7976C36.1501 79.4757 37.4539 80.7941 39.1132 80.7941H95.8016C97.4602 80.7941 98.7639 82.1118 98.7639 83.7899Z" fill="#34414D"/>
<path d="M30 31.8333C30.1851 32.0648 32.6638 29.2279 35.8235 30.6067C35.8349 30.3572 35.8667 30.1099 35.8098 29.8551L33.2458 18.273C32.9522 16.9439 31.7685 16 30.3996 16H12.9146C11.3036 16 10 17.2952 10 18.8957C10 20.4955 11.3036 21.7907 12.9146 21.7907H28.0572L30 31.8333Z" fill="#34414D"/>
<path d="M109.426 29.54C108.838 28.7728 108.013 28.3596 107.072 28.3596H29.1006L38.2831 69.7694L39.5782 75.5506H95.2996C96.5947 75.5506 97.7717 74.6652 98.125 73.4265L109.897 32.1349C110.133 31.2502 109.956 30.2473 109.426 29.54Z" fill="#30C2FF"/>
</svg>
