<svg width="558" height="558" viewBox="0 0 558 558" fill="none" xmlns="http://www.w3.org/2000/svg">
<path d="M558 0H0V558H558V0Z" fill="white"/>
<path d="M40.9199 62.0801C40.9199 56.5572 45.3971 52.0801 50.9199 52.0801H507.08C512.603 52.0801 517.08 56.5572 517.08 62.0801V494.76H40.9199V62.0801Z" fill="#F2F2F2"/>
<path d="M435.5 273C460.629 273 481 252.629 481 227.5C481 202.371 460.629 182 435.5 182C410.371 182 390 202.371 390 227.5C390 252.629 410.371 273 435.5 273Z" fill="white"/>
<path fill-rule="evenodd" clip-rule="evenodd" d="M426.857 246.286C426.936 246.286 427 246.222 427 246.143C427 246.064 426.936 246 426.857 246C426.778 246 426.714 246.064 426.714 246.143C426.714 246.222 426.778 246.286 426.857 246.286ZM423 246.143C423 244.013 424.727 242.286 426.857 242.286C428.987 242.286 430.714 244.013 430.714 246.143C430.714 248.273 428.987 250 426.857 250C424.727 250 423 248.273 423 246.143Z" fill="#010B31"/>
<path fill-rule="evenodd" clip-rule="evenodd" d="M447.286 246.286C447.365 246.286 447.429 246.222 447.429 246.143C447.429 246.064 447.365 246 447.286 246C447.207 246 447.143 246.064 447.143 246.143C447.143 246.222 447.207 246.286 447.286 246.286ZM443.429 246.143C443.429 244.013 445.156 242.286 447.286 242.286C449.416 242.286 451.143 244.013 451.143 246.143C451.143 248.273 449.416 250 447.286 250C445.156 250 443.429 248.273 443.429 246.143Z" fill="#010B31"/>
<path fill-rule="evenodd" clip-rule="evenodd" d="M410 209C410 207.895 410.895 207 412 207H419.429C420.382 207 421.203 207.673 421.39 208.607L422.926 216.286H452.857C453.453 216.286 454.018 216.552 454.398 217.011C454.778 217.47 454.933 218.075 454.822 218.66L451.85 234.242L451.847 234.257C451.586 235.572 450.871 236.754 449.826 237.595C448.787 238.431 447.488 238.878 446.154 238.857H428.137C426.804 238.878 425.505 238.431 424.466 237.595C423.421 236.754 422.706 235.573 422.444 234.258V234.257L419.343 218.762C419.33 218.708 419.319 218.654 419.31 218.598L417.789 211H412C410.895 211 410 210.105 410 209ZM423.727 220.286L426.367 233.478C426.446 233.872 426.66 234.227 426.974 234.479C427.287 234.731 427.679 234.865 428.082 234.858C428.094 234.857 428.107 234.857 428.12 234.857H446.171C446.184 234.857 446.197 234.857 446.21 234.858C446.612 234.865 447.004 234.731 447.318 234.479C447.629 234.228 447.843 233.876 447.923 233.483C447.923 233.481 447.924 233.479 447.924 233.478L450.44 220.286H423.727Z" fill="#010B31"/>
<path d="M403.5 244L417 258L378 272L403.5 244Z" fill="white"/>
<path d="M181.5 322C206.077 322 226 302.077 226 277.5C226 252.923 206.077 233 181.5 233C156.923 233 137 252.923 137 277.5C137 302.077 156.923 322 181.5 322Z" fill="white"/>
<path fill-rule="evenodd" clip-rule="evenodd" d="M166.513 264.872C167.482 263.903 168.796 263.359 170.167 263.359H181.25C182.355 263.359 183.25 264.254 183.25 265.359C183.25 266.463 182.355 267.359 181.25 267.359H170.167C169.857 267.359 169.561 267.482 169.342 267.7C169.123 267.919 169 268.216 169 268.525V290.692C169 291.001 169.123 291.298 169.342 291.517C169.561 291.736 169.857 291.859 170.167 291.859H192.333C192.643 291.859 192.939 291.736 193.158 291.517C193.377 291.298 193.5 291.001 193.5 290.692V279.609C193.5 278.504 194.395 277.609 195.5 277.609C196.605 277.609 197.5 278.504 197.5 279.609V290.692C197.5 292.062 196.956 293.376 195.987 294.345C195.018 295.314 193.704 295.859 192.333 295.859H170.167C168.796 295.859 167.482 295.314 166.513 294.345C165.544 293.376 165 292.062 165 290.692V268.525C165 267.155 165.544 265.841 166.513 264.872Z" fill="#010B31"/>
<path d="M193.125 262.984C193.755 262.354 194.609 262 195.5 262C196.391 262 197.245 262.354 197.875 262.984C198.505 263.614 198.859 264.468 198.859 265.359C198.859 266.25 198.505 267.104 197.875 267.734L182.833 282.775L176.5 284.359L178.083 278.025L193.125 262.984Z" fill="#010B31"/>
<path d="M208.216 296.281L188 310.989L216.483 333.005L208.216 296.281Z" fill="white"/>
<path d="M40.9199 62.0801C40.9199 56.5572 45.3971 52.0801 50.9199 52.0801H507.08C512.603 52.0801 517.08 56.5572 517.08 62.0801V85.5601H40.9199V62.0801Z" fill="#E5E5E5"/>
<path d="M64.4798 74.4C67.9039 74.4 70.6798 71.6242 70.6798 68.2C70.6798 64.7758 67.9039 62 64.4798 62C61.0556 62 58.2798 64.7758 58.2798 68.2C58.2798 71.6242 61.0556 74.4 64.4798 74.4Z" fill="#C4C4C4"/>
<path d="M86.8001 74.4C90.2243 74.4 93.0001 71.6242 93.0001 68.2C93.0001 64.7758 90.2243 62 86.8001 62C83.3759 62 80.6001 64.7758 80.6001 68.2C80.6001 71.6242 83.3759 74.4 86.8001 74.4Z" fill="#C4C4C4"/>
<path d="M109.12 74.4C112.544 74.4 115.32 71.6242 115.32 68.2C115.32 64.7758 112.544 62 109.12 62C105.696 62 102.92 64.7758 102.92 68.2C102.92 71.6242 105.696 74.4 109.12 74.4Z" fill="#C4C4C4"/>
<path d="M420.427 445.771H525.693V511.987H420.427V445.771Z" fill="#8BC34A"/>
<path d="M457.324 473.109C458.526 471.36 461.109 471.36 462.311 473.109L473.203 488.951C474.583 490.959 473.145 493.692 470.709 493.692H448.926C446.489 493.692 445.052 490.959 446.432 488.951L457.324 473.109Z" fill="#EEEEEE"/>
<path d="M478.5 464.071C479.701 462.309 482.299 462.309 483.501 464.071L500.471 488.961C501.841 490.97 500.402 493.692 497.971 493.692H464.029C461.598 493.692 460.159 490.97 461.529 488.961L478.5 464.071Z" fill="white"/>
<path d="M420.427 445.771L417.88 422.85L428.916 417.756L434.009 437.281L420.427 445.771Z" fill="#8BC34A"/>
<path d="M525.693 445.771L528.24 422.85L517.204 417.756L512.111 437.281L525.693 445.771Z" fill="#8BC34A"/>
<path d="M420.427 445.771H525.693L511.888 437.281H434.232L420.427 445.771Z" fill="#689F38"/>
<path d="M437.404 406.72H508.714L511.887 437.281H434.231L437.404 406.72Z" fill="#8BC34A"/>
<path d="M478.154 445.77C478.154 448.583 475.873 450.864 473.06 450.864C470.247 450.864 467.967 448.583 467.967 445.77C467.967 442.957 470.247 440.677 473.06 440.677C475.873 440.677 478.154 442.957 478.154 445.77Z" fill="#689F38"/>
<path d="M458.306 344.485L458.409 345.791C458.457 346.446 458.925 346.993 459.558 347.15L484.036 353.228C484.669 353.385 485.339 353.12 485.687 352.564L486.389 351.458L486.443 351.471C487.238 351.669 488.045 351.198 488.274 350.411L490.482 342.736C491.2 343.36 492.057 343.846 493.026 344.135C496.647 345.211 500.473 343.145 501.55 339.524L504.595 329.305C505.676 325.685 503.604 321.862 499.984 320.781C498.935 320.468 497.869 320.419 496.86 320.6L498.83 313.748C499.07 312.916 498.574 312.054 497.734 311.846L466.806 304.167C465.966 303.958 465.125 304.488 464.948 305.336L457.129 342.678C456.959 343.48 457.457 344.275 458.252 344.472L458.306 344.485ZM491.518 339.143L495.803 324.259C496.729 323.598 497.941 323.352 499.115 323.701C501.124 324.3 502.276 326.423 501.675 328.436L498.634 338.656C498.035 340.665 495.908 341.815 493.895 341.214C492.8 340.89 491.958 340.11 491.518 339.143Z" fill="#ED1C24"/>
<path d="M471.558 325.775C472.12 325.345 472.936 325.547 473.232 326.19L476.544 333.386C476.932 334.227 476.174 335.143 475.275 334.92L465.669 332.535C464.77 332.312 464.529 331.148 465.265 330.586L471.558 325.775Z" fill="#EEEEEE"/>
<path d="M480.636 323.502C481.21 323.025 482.082 323.241 482.365 323.932L487.362 336.11C487.706 336.947 486.952 337.819 486.074 337.601L470.964 333.85C470.086 333.632 469.828 332.508 470.523 331.929L480.636 323.502Z" fill="white"/>
<path d="M14.4435 335.205C14.2484 334.127 14.9686 333.384 16.0519 333.546L21.2829 334.327C22.3662 334.489 23.4026 335.494 23.5977 336.572C23.7927 337.649 23.0726 338.392 21.9892 338.23L16.7583 337.449C15.6749 337.287 14.6385 336.282 14.4435 335.205Z" fill="#DDDDDD"/>
<path d="M14.4435 335.205C14.2484 334.127 14.9686 333.384 16.0519 333.546L21.2829 334.327C22.3662 334.489 23.4026 335.494 23.5977 336.572C23.7927 337.649 23.0726 338.392 21.9892 338.23L16.7583 337.449C15.6749 337.287 14.6385 336.282 14.4435 335.205Z" fill="#DDDDDD"/>
<path d="M16.3263 345.614C16.1313 344.536 16.8514 343.793 17.9347 343.955L23.1657 344.736C24.2491 344.898 25.2854 345.903 25.4805 346.98C25.6755 348.058 24.9554 348.801 23.872 348.639L18.6411 347.858C17.5577 347.696 16.5214 346.691 16.3263 345.614Z" fill="#DDDDDD"/>
<path d="M18.2101 356.022C18.0151 354.944 18.7352 354.202 19.8185 354.363L25.0495 355.145C26.1328 355.306 27.1692 356.311 27.3643 357.389C27.5593 358.467 26.8392 359.21 25.7558 359.048L20.5249 358.267C19.4415 358.105 18.4051 357.1 18.2101 356.022Z" fill="#DDDDDD"/>
<path d="M20.0934 366.431C19.8984 365.353 20.6185 364.61 21.7018 364.772L26.9328 365.553C28.0161 365.715 29.0525 366.72 29.2476 367.798C29.4426 368.876 28.7225 369.618 27.6391 369.457L22.4082 368.675C21.3248 368.514 20.2884 367.509 20.0934 366.431Z" fill="#DDDDDD"/>
<path d="M21.9772 376.84C21.7821 375.762 22.5023 375.019 23.5856 375.181L28.8166 375.962C29.8999 376.124 30.9363 377.129 31.1313 378.207C31.3264 379.285 30.6063 380.027 29.5229 379.866L24.292 379.084C23.2086 378.923 22.1722 377.918 21.9772 376.84Z" fill="#DDDDDD"/>
<path d="M23.861 387.249C23.6659 386.171 24.3861 385.428 25.4694 385.59L30.7004 386.371C31.7837 386.533 32.8201 387.538 33.0151 388.616C33.2102 389.694 32.4901 390.436 31.4067 390.274L26.1757 389.493C25.0924 389.332 24.056 388.327 23.861 387.249Z" fill="#DDDDDD"/>
<path d="M25.7443 397.657C25.5492 396.58 26.2694 395.837 27.3527 395.999L32.5837 396.78C33.667 396.942 34.7034 397.947 34.8984 399.024C35.0935 400.102 34.3734 400.845 33.29 400.683L28.059 399.902C26.9757 399.74 25.9393 398.735 25.7443 397.657Z" fill="#DDDDDD"/>
<path d="M27.6276 408.066C27.4325 406.989 28.1527 406.246 29.236 406.408L34.467 407.189C35.5503 407.351 36.5867 408.355 36.7817 409.433C36.9768 410.511 36.2567 411.254 35.1733 411.092L29.9423 410.311C28.859 410.149 27.8226 409.144 27.6276 408.066Z" fill="#DDDDDD"/>
<path d="M18.6068 328.512C18.3848 327.285 19.1993 326.111 20.4262 325.889L104.078 310.751L121.281 405.82L39.8509 420.555C37.3972 420.999 35.0482 419.37 34.6042 416.917L18.6068 328.512Z" fill="#30C2FF"/>
<path fill-rule="evenodd" clip-rule="evenodd" d="M55.0405 389.036C54.8385 387.92 55.5796 386.852 56.6957 386.65L89.8123 380.657C90.9284 380.455 91.9969 381.196 92.1988 382.312C92.4008 383.428 91.6598 384.497 90.5437 384.699L57.4271 390.691C56.311 390.893 55.2425 390.152 55.0405 389.036Z" fill="white"/>
<path d="M51.5051 355.786C52.3597 354.205 54.4594 353.825 55.8136 355.006L70.9681 368.218C72.74 369.763 71.9381 372.672 69.6249 373.09L44.907 377.563C42.5938 377.982 40.8235 375.538 41.9417 373.471L51.5051 355.786Z" fill="#EEEEEE"/>
<path d="M71.3816 340.858C72.2119 339.155 74.4567 338.749 75.831 340.053L100.07 363.046C101.736 364.627 100.9 367.43 98.64 367.839L59.7563 374.875C57.4966 375.284 55.7307 372.952 56.7372 370.888L71.3816 340.858Z" fill="white"/>
<path d="M36.7295 413.812C36.3965 411.972 37.6184 410.21 39.4587 409.877L119.397 395.412L120.81 403.218L40.8713 417.684C39.0311 418.017 37.2693 416.795 36.9363 414.954L36.7295 413.812Z" fill="#EEEEEE"/>
<path d="M14.4428 335.204C14.2478 334.126 14.92 332.938 15.9443 332.55L20.8899 330.675C21.9142 330.287 22.9026 330.846 23.0977 331.924C23.2927 333.002 22.6205 334.19 21.5962 334.579L16.6506 336.453C15.6263 336.841 14.6379 336.282 14.4428 335.204Z" fill="#EEEEEE"/>
<path d="M16.3266 345.613C16.1316 344.535 16.8038 343.347 17.8281 342.958L22.7737 341.084C23.798 340.696 24.7864 341.255 24.9815 342.333C25.1765 343.411 24.5043 344.599 23.48 344.987L18.5344 346.862C17.5101 347.25 16.5216 346.691 16.3266 345.613Z" fill="#EEEEEE"/>
<path d="M18.2099 356.022C18.0149 354.944 18.6871 353.756 19.7114 353.368L24.657 351.493C25.6813 351.105 26.6697 351.664 26.8648 352.742C27.0598 353.82 26.3876 355.008 25.3633 355.397L20.4177 357.271C19.3934 357.659 18.4049 357.1 18.2099 356.022Z" fill="#EEEEEE"/>
<path d="M20.0932 366.431C19.8982 365.353 20.5704 364.165 21.5947 363.776L26.5403 361.902C27.5646 361.514 28.553 362.073 28.7481 363.151C28.9431 364.229 28.2709 365.417 27.2466 365.805L22.301 367.68C21.2767 368.068 20.2882 367.509 20.0932 366.431Z" fill="#EEEEEE"/>
<path d="M21.9765 376.839C21.7815 375.761 22.4537 374.573 23.478 374.185L28.4236 372.31C29.4479 371.922 30.4363 372.481 30.6314 373.559C30.8264 374.637 30.1542 375.825 29.1299 376.214L24.1843 378.088C23.16 378.476 22.1715 377.917 21.9765 376.839Z" fill="#EEEEEE"/>
<path d="M23.8603 387.249C23.6652 386.171 24.3375 384.982 25.3617 384.594L30.3074 382.72C31.3317 382.331 32.3201 382.89 32.5152 383.968C32.7102 385.046 32.038 386.235 31.0137 386.623L26.0681 388.497C25.0438 388.885 24.0553 388.326 23.8603 387.249Z" fill="#EEEEEE"/>
<path d="M25.7436 397.657C25.5485 396.579 26.2208 395.391 27.245 395.002L32.1907 393.128C33.215 392.74 34.2034 393.299 34.3985 394.377C34.5935 395.455 33.9213 396.643 32.897 397.031L27.9514 398.906C26.9271 399.294 25.9386 398.735 25.7436 397.657Z" fill="#EEEEEE"/>
<path d="M27.6274 408.066C27.4323 406.988 28.1046 405.8 29.1288 405.412L34.0745 403.537C35.0988 403.149 36.0872 403.708 36.2823 404.786C36.4773 405.864 35.8051 407.052 34.7808 407.44L29.8352 409.315C28.8109 409.703 27.8224 409.144 27.6274 408.066Z" fill="#EEEEEE"/>
<path d="M438.761 21.4744L485.01 27.9488L481.669 51.8195L435.419 45.3451L438.761 21.4744Z" fill="#DFA700"/>
<path d="M488.181 28.3927C485.194 27.9746 482.207 27.5564 479.22 27.1383C477.792 36.9935 468.919 43.8825 459.399 42.5497C449.888 41.2183 443.513 32.1948 445.206 22.3767C442.836 22.0449 440.465 21.713 438.094 21.3812C430.319 20.2927 389.181 38.7919 389.181 38.7919L394.469 72.8493L413.239 69.4342L403.647 137.771L488.304 149.622L495.7 80.9776L512.773 89.4104L527.797 58.1964C527.797 58.1964 492.524 29.0007 488.181 28.3927Z" fill="#FFC107"/>
<path d="M438.685 81.3142C439.798 80.2626 441.599 80.5147 442.381 81.8316L451.128 96.5681C452.151 98.2912 450.726 100.432 448.742 100.154L427.538 97.186C425.553 96.9083 424.772 94.4584 426.228 93.0824L438.685 81.3142Z" fill="#EEEEEE"/>
<path d="M458.757 74.5284C459.883 73.3714 461.809 73.641 462.574 75.0628L476.068 100.14C476.995 101.863 475.571 103.91 473.632 103.639L440.276 98.9694C438.338 98.6981 437.53 96.3389 438.895 94.9362L458.757 74.5284Z" fill="white"/>
<path opacity="0.25" d="M330.642 518.381C286.086 518.381 335.771 531.557 314.046 535.178C292.422 538.799 249.475 514.962 241.73 520.393C233.986 525.824 243.742 534.675 206.83 535.58C169.917 536.485 152.216 531.557 178.668 518.281C205.12 505.004 247.061 470.506 287.293 480.865C327.624 491.225 398.733 518.381 330.642 518.381Z" fill="#A6A6A6"/>
<path d="M257.924 316.118L266.171 360.071C267.579 391.049 271.703 448.781 271.703 448.781C310.225 464.371 344.019 446.569 344.019 446.569C353.373 410.159 365.543 316.118 365.543 316.118C365.543 316.118 344.12 296.908 309.923 296.908C277.235 296.908 257.924 316.118 257.924 316.118Z" fill="#ED1C24"/>
<path d="M195.767 500.981C195.867 500.981 195.968 500.88 196.068 500.88C196.37 500.679 196.571 500.277 196.571 499.875C196.37 498.366 194.962 490.621 192.045 489.314C191.442 489.113 190.537 488.912 189.531 489.616C188.726 490.119 188.223 490.923 188.223 491.929C188.123 495.449 194.359 500.277 195.063 500.88C195.264 500.981 195.465 501.082 195.767 500.981ZM190.939 491.024C191.039 491.024 191.14 491.024 191.241 491.024C192.347 491.527 193.453 494.645 194.157 497.561C192.146 495.65 190.034 493.337 190.034 491.929C190.034 491.728 190.134 491.426 190.537 491.124C190.637 491.124 190.838 491.024 190.939 491.024Z" fill="#182C35"/>
<path d="M195.766 500.981C196.169 500.881 196.47 500.579 196.571 500.277C196.672 499.875 196.47 499.472 196.068 499.271C195.264 498.869 188.223 495.148 185.005 496.355C184.3 496.556 183.798 497.059 183.496 497.763C183.194 498.467 183.295 499.07 183.697 499.674C185.105 501.786 193.252 501.182 195.766 500.981C195.666 500.981 195.666 500.981 195.766 500.981ZM185.91 497.964C187.217 497.763 189.531 498.467 191.643 499.271C188.223 499.271 185.407 498.97 185.105 498.366C185.206 498.266 185.306 498.064 185.608 497.964C185.709 498.064 185.809 497.964 185.91 497.964Z" fill="#182C35"/>
<path d="M229.963 521.7L160.363 532.764C160.363 532.764 157.949 530.25 160.162 528.137L228.957 514.66C228.857 514.76 233.886 516.169 229.963 521.7Z" fill="white"/>
<path d="M225.236 500.076C223.727 502.087 220.609 505.306 216.184 506.01C209.747 507.016 204.215 500.277 204.215 500.277L202.404 498.969L199.588 495.55C199.588 495.55 196.168 495.449 195.565 499.975C195.565 499.975 160.463 523.309 159.558 524.617C158.653 525.924 160.161 528.137 160.161 528.137L228.957 514.66L226.342 498.467C226.342 498.567 225.94 499.171 225.236 500.076Z" fill="#FF4E5A"/>
<path d="M193.105 501.495L198.651 507.464L197.251 508.765L191.705 502.796L193.105 501.495Z" fill="#182C35"/>
<path d="M187.847 505.239L193.393 511.207L191.993 512.508L186.448 506.54L187.847 505.239Z" fill="#182C35"/>
<path d="M274.117 493.036C274.72 492.633 279.95 489.113 280.051 486.297C280.051 485.593 279.749 484.889 279.146 484.386C278.341 483.782 277.637 483.883 277.134 483.984C274.72 484.889 273.211 490.923 272.91 492.13C272.809 492.432 273.01 492.734 273.211 492.935C273.312 493.036 273.413 493.036 273.513 493.036C273.714 493.136 273.915 493.136 274.117 493.036ZM278.24 485.693C278.542 485.894 278.542 486.096 278.542 486.297C278.542 487.403 276.732 489.214 275.022 490.521C275.726 488.208 276.732 485.794 277.737 485.492C277.737 485.492 277.838 485.492 277.939 485.492C278.039 485.492 278.14 485.593 278.24 485.693Z" fill="#182C35"/>
<path d="M273.614 493.136C275.525 493.438 281.962 494.343 283.269 492.634C283.571 492.231 283.672 491.728 283.471 491.125C283.269 490.622 282.867 490.22 282.364 489.918C279.85 488.812 274.016 491.326 273.413 491.628C273.111 491.728 272.91 492.131 273.01 492.432C273.01 492.835 273.212 493.036 273.614 493.136C273.513 493.136 273.513 493.136 273.614 493.136ZM281.761 491.326C281.962 491.427 282.062 491.527 282.062 491.628C281.761 492.03 279.548 492.231 276.832 491.93C278.643 491.326 280.453 490.924 281.459 491.225C281.56 491.326 281.66 491.326 281.761 491.326Z" fill="#182C35"/>
<path d="M245.15 507.619L299.764 520.292C299.764 520.292 301.776 518.381 300.267 516.571L246.458 502.088C246.458 502.188 242.434 502.993 245.15 507.619Z" fill="white"/>
<path d="M250.179 490.722C251.285 492.332 253.599 495.148 257.018 495.952C262.047 497.159 266.875 492.13 266.875 492.13L268.384 491.225L270.797 488.711C270.797 488.711 273.513 488.811 273.714 492.432C273.714 492.432 300.267 512.95 300.87 513.956C301.574 515.062 300.267 516.672 300.267 516.672L246.457 502.188L249.374 489.515C249.374 489.415 249.676 490.018 250.179 490.722Z" fill="#FF4E5A"/>
<path d="M275.497 493.675L276.526 494.777L271.822 499.171L270.792 498.069L275.497 493.675Z" fill="#182C35"/>
<path d="M279.514 496.935L280.544 498.037L275.84 502.431L274.81 501.329L279.514 496.935Z" fill="#182C35"/>
<path d="M291.014 437.516C291.014 437.516 197.476 405.432 172.231 414.484C146.986 423.536 156.842 457.732 210.652 489.012L291.014 437.516Z" fill="url(#paint0_linear)"/>
<path d="M200.896 494.041L229.762 515.867L280.353 495.047C280.353 495.047 293.629 512.447 320.886 512.447C355.384 512.447 364.939 491.929 364.939 472.115C364.939 452.301 347.64 405.13 317.064 422.027C286.488 439.025 200.896 494.041 200.896 494.041Z" fill="url(#paint1_linear)"/>
<path d="M216.586 505.91C216.385 505.91 216.285 506.01 216.084 506.01C209.647 507.016 204.115 500.277 204.115 500.277L202.304 498.97L205.221 497.26L216.586 505.91Z" fill="#BC6964"/>
<path d="M313.242 210.812C294.132 210.309 286.387 225.296 279.347 237.566C272.306 249.837 258.225 272.769 270.697 285.442C283.169 298.115 286.387 295.198 286.387 295.198L283.169 288.157C283.169 288.157 292.221 299.321 315.153 299.321C338.085 299.321 342.711 289.163 342.711 289.163L339.996 297.109C339.996 297.109 360.916 289.364 361.821 272.366C362.626 255.268 346.734 232.839 340.398 223.787C334.061 214.634 331.245 211.315 313.242 210.812Z" fill="url(#paint2_linear)"/>
<path d="M365.543 316.118C365.543 316.118 376.003 323.561 378.92 335.228C382.138 347.498 398.835 394.77 398.734 399.9C398.633 405.029 396.823 406.437 390.285 410.058C383.748 413.679 334.565 425.346 329.838 426.553C325.11 427.76 315.757 429.168 311.734 427.76C307.71 426.453 302.782 424.441 302.782 424.441C302.782 424.441 297.15 426.855 296.345 428.967C295.44 431.079 295.54 433.091 293.328 433.091C293.328 433.091 292.322 430.073 293.73 426.151L291.92 433.091C291.92 433.091 290.009 433.191 289.506 430.576C289.103 427.961 289.304 422.932 289.304 422.932C289.304 422.932 285.483 431.582 280.454 429.872C280.454 429.872 283.773 422.128 285.181 420.418C286.589 418.607 293.227 413.78 293.227 413.78C293.227 413.78 286.187 414.182 284.074 415.288C281.962 416.395 278.643 420.82 275.525 419.714C275.525 419.714 278.14 414.685 281.661 412.372C285.181 409.958 296.244 408.751 298.859 409.153C301.575 409.555 314.55 415.489 322.495 415.087C330.441 414.685 352.468 400 358.201 396.882C363.934 393.765 372.584 388.836 372.584 388.836L358.301 354.841L365.543 316.118Z" fill="#FFB27D"/>
<path d="M293.73 426.252C293.73 426.252 296.446 420.418 300.67 420.317" stroke="#0D1333" stroke-miterlimit="10" stroke-linecap="round" stroke-linejoin="round"/>
<path d="M289.305 423.033C289.305 423.033 293.63 415.892 297.854 416.395" stroke="#0D1333" stroke-miterlimit="10" stroke-linecap="round" stroke-linejoin="round"/>
<path d="M358.301 354.841L365.543 316.118C365.543 316.118 376.003 323.561 378.92 335.228C380.932 343.073 388.475 365.2 393.604 381.494C389.28 383.807 381.636 387.126 372.081 387.73L358.301 354.841Z" fill="#FFB27D"/>
<path d="M365.543 316.118C365.543 316.118 383.949 328.992 396.421 369.123C396.421 369.123 379.222 384.813 362.727 382.198L357.296 360.071L365.543 316.118Z" fill="#ED1C24"/>
<path d="M257.924 316.118C257.924 316.118 239.519 328.992 227.047 369.123C227.047 369.123 244.246 384.813 260.741 382.198L266.172 360.071L257.924 316.118Z" fill="#ED1C24"/>
<path d="M298.859 303.747C298.859 303.646 298.859 303.646 298.859 303.747C298.859 303.646 298.859 303.646 298.859 303.747C298.859 303.646 302.58 291.074 302.882 280.714C313.945 285.039 326.719 277.294 328.932 274.881L328.429 303.143C328.328 303.344 324.305 315.313 309.922 314.71C297.35 314.207 298.356 304.954 298.859 303.747Z" fill="#FFB27D"/>
<path d="M303.385 237.667C297.35 237.466 292.12 241.891 291.215 247.825C290.913 249.434 290.712 250.742 290.611 251.144C289.706 253.96 286.588 269.248 298.456 278.3C299.865 279.407 301.373 280.211 302.882 280.815C313.946 285.14 326.719 277.395 328.932 274.981L330.34 236.057C330.34 235.957 330.34 235.756 330.34 235.655C330.139 232.839 326.92 231.33 324.506 232.839C321.489 234.549 314.247 237.968 303.385 237.667Z" fill="#FFB27D"/>
<path d="M323.092 257.422C324.5 261.646 329.126 264.06 333.351 262.652C337.575 261.244 339.989 256.617 338.581 252.393C337.173 248.168 332.546 245.755 328.322 247.163C323.997 248.571 321.684 253.197 323.092 257.422Z" fill="#FFB27D"/>
<path d="M302.883 280.614C302.782 284.235 302.279 288.057 301.676 291.476C307.107 291.979 321.389 292.08 328.933 280.413L329.033 274.78C326.72 277.194 313.946 284.939 302.883 280.614Z" fill="#FFB27D"/>
<path d="M226.142 432.789H336.778C340.7 432.789 344.02 429.57 344.02 425.547V355.343C344.02 351.421 340.801 348.102 336.778 348.102H226.142C222.219 348.102 218.9 351.32 218.9 355.343V425.547C218.9 429.57 222.118 432.789 226.142 432.789Z" fill="white"/>
<path d="M281.76 399.28C276.966 399.28 273.08 395.394 273.08 390.6C273.08 385.806 276.966 381.92 281.76 381.92C286.554 381.92 290.44 385.806 290.44 390.6C290.44 395.394 286.554 399.28 281.76 399.28Z" fill="#DDDDDD"/>
<path d="M239 118.288L315.299 113.229L318.334 159.009L242.035 164.067L239 118.288Z" fill="#8BC34A"/>
<path d="M266.069 133.56C266.864 132.165 268.76 132.039 269.732 133.317L278.532 144.892C279.648 146.359 278.731 148.517 276.941 148.636L260.945 149.697C259.156 149.815 257.962 147.797 258.874 146.195L266.069 133.56Z" fill="#EEEEEE"/>
<path d="M280.656 126.942C281.41 125.616 283.22 125.496 284.142 126.711L297.161 143.87C298.211 145.255 297.339 147.284 295.644 147.396L271.986 148.965C270.291 149.077 269.158 147.181 270.017 145.67L280.656 126.942Z" fill="white"/>
<path d="M66.7441 124.816L137.544 116.141L149.111 210.541L78.311 219.216L66.7441 124.816Z" fill="#DDDDDD"/>
<path d="M63 121.072L133.8 112.397L145.367 206.797L74.5668 215.472L63 121.072Z" fill="white"/>
<path fill-rule="evenodd" clip-rule="evenodd" d="M76.9897 164.859C76.8946 164.083 77.4465 163.378 78.2223 163.282L101.241 160.462C102.016 160.367 102.722 160.919 102.817 161.695C102.912 162.47 102.361 163.176 101.585 163.271L78.5665 166.092C77.7907 166.187 77.0848 165.635 76.9897 164.859Z" fill="#CCCCCC"/>
<path fill-rule="evenodd" clip-rule="evenodd" d="M74.5022 144.567C74.4389 144.05 74.8068 143.579 75.3239 143.516L86.0931 142.197C86.6103 142.133 87.081 142.501 87.1443 143.018C87.2077 143.535 86.8398 144.006 86.3226 144.069L75.5534 145.389C75.0362 145.452 74.5656 145.084 74.5022 144.567Z" fill="#CCCCCC"/>
<path fill-rule="evenodd" clip-rule="evenodd" d="M75.0193 148.781C74.956 148.264 75.3238 147.794 75.841 147.73L86.6102 146.411C87.1274 146.347 87.598 146.715 87.6614 147.232C87.7248 147.75 87.3569 148.22 86.8397 148.284L76.0705 149.603C75.5533 149.666 75.0827 149.299 75.0193 148.781Z" fill="#CCCCCC"/>
<path fill-rule="evenodd" clip-rule="evenodd" d="M77.8572 171.943C77.7938 171.426 78.1617 170.955 78.6789 170.892L127.208 164.946C127.726 164.882 128.196 165.25 128.26 165.768C128.323 166.285 127.955 166.755 127.438 166.819L78.9084 172.765C78.3912 172.828 77.9206 172.46 77.8572 171.943Z" fill="#CCCCCC"/>
<path fill-rule="evenodd" clip-rule="evenodd" d="M78.5506 177.607C78.4872 177.09 78.8551 176.62 79.3723 176.556L127.902 170.61C128.419 170.546 128.89 170.914 128.953 171.432C129.016 171.949 128.648 172.419 128.131 172.483L79.6018 178.429C79.0846 178.492 78.6139 178.125 78.5506 177.607Z" fill="#CCCCCC"/>
<path fill-rule="evenodd" clip-rule="evenodd" d="M79.2444 183.271C79.1811 182.754 79.5489 182.284 80.0661 182.22L128.596 176.274C129.113 176.211 129.583 176.578 129.647 177.096C129.71 177.613 129.342 178.083 128.825 178.147L80.2956 184.093C79.7784 184.156 79.3078 183.789 79.2444 183.271Z" fill="#CCCCCC"/>
<path fill-rule="evenodd" clip-rule="evenodd" d="M79.9392 188.935C79.8758 188.418 80.2437 187.948 80.7609 187.884L129.29 181.938C129.807 181.875 130.278 182.243 130.341 182.76C130.405 183.277 130.037 183.748 129.519 183.811L80.9904 189.757C80.4732 189.821 80.0025 189.453 79.9392 188.935Z" fill="#CCCCCC"/>
<path fill-rule="evenodd" clip-rule="evenodd" d="M80.6326 194.599C80.5692 194.082 80.9371 193.611 81.4543 193.548L129.984 187.602C130.501 187.538 130.972 187.906 131.035 188.424C131.098 188.941 130.73 189.411 130.213 189.475L81.6838 195.421C81.1666 195.484 80.696 195.116 80.6326 194.599Z" fill="#CCCCCC"/>
<path fill-rule="evenodd" clip-rule="evenodd" d="M81.3279 200.271C81.264 199.75 81.5656 199.284 82.0015 199.23L122.903 194.219C123.339 194.165 123.744 194.544 123.808 195.066C123.872 195.587 123.57 196.053 123.135 196.107L82.2328 201.118C81.7969 201.172 81.3918 200.792 81.3279 200.271Z" fill="#CCCCCC"/>
<path d="M77.3236 131.903C77.696 131.189 78.6692 131.069 79.2031 131.673L84.0392 137.14C84.6521 137.833 84.2366 138.93 83.3183 139.042L75.1093 140.048C74.191 140.16 73.5231 139.197 73.9506 138.376L77.3236 131.903Z" fill="#37A9E2"/>
<path d="M84.8866 127.519C85.258 126.799 86.2371 126.679 86.7712 127.288L94.3161 135.884C94.925 136.578 94.5085 137.67 93.5922 137.783L80.8011 139.35C79.8849 139.462 79.217 138.503 79.6404 137.682L84.8866 127.519Z" fill="#30C2FF"/>
<defs>
<linearGradient id="paint0_linear" x1="291.025" y1="450.966" x2="159.019" y2="450.966" gradientUnits="userSpaceOnUse">
<stop stop-color="#000028"/>
<stop offset="1" stop-color="#002D4F"/>
</linearGradient>
<linearGradient id="paint1_linear" x1="364.979" y1="467.159" x2="200.939" y2="467.159" gradientUnits="userSpaceOnUse">
<stop stop-color="#000028"/>
<stop offset="1" stop-color="#002D4F"/>
</linearGradient>
<linearGradient id="paint2_linear" x1="313.759" y1="299.351" x2="313.759" y2="210.812" gradientUnits="userSpaceOnUse">
<stop stop-color="#00192A"/>
<stop offset="0.2981" stop-color="#28233C"/>
<stop offset="0.5857" stop-color="#462B4A"/>
<stop offset="0.8295" stop-color="#593052"/>
<stop offset="1" stop-color="#603255"/>
</linearGradient>
</defs>
</svg>
