<svg width="120" height="120" viewBox="0 0 120 120" fill="none" xmlns="http://www.w3.org/2000/svg">
<rect width="120" height="120" fill="white"/>
<path d="M10 21.4707V101.177C10 106.042 13.9428 110 18.7891 110H101.211C106.057 110 110 106.042 110 101.177V21.4707H10Z" fill="#EEEEEE"/>
<path d="M69.3327 44.223C67.9369 43.6248 66.3202 44.2714 65.722 45.6673L49.2231 84.1661C48.6247 85.562 49.2715 87.1787 50.6673 87.7769C52.0637 88.3753 53.68 87.7282 54.278 86.3327L70.7769 47.8338C71.3753 46.4378 70.7285 44.8212 69.3327 44.223Z" fill="#30C2FF"/>
<path d="M44.9811 74.1914L34.0588 65.4998L44.9811 56.8082C46.1519 55.8768 46.3415 54.1777 45.4051 53.0133C44.4684 51.8489 42.76 51.6603 41.5899 52.5918L28.0181 63.3917C26.6611 64.4711 26.6602 66.528 28.0181 67.6083L41.5899 78.4082C42.7606 79.3399 44.469 79.1509 45.4051 77.9866C46.3415 76.8219 46.1519 75.1229 44.9811 74.1914Z" fill="#30C2FF"/>
<path d="M91.9819 63.3918L78.4101 52.5919C77.2394 51.6602 75.5312 51.849 74.5949 53.0134C73.6585 54.1778 73.8481 55.877 75.0189 56.8083L85.9412 65.5001L75.0189 74.1917C73.8481 75.1232 73.6585 76.8222 74.5949 77.9866C75.5326 79.1523 77.2411 79.3388 78.4101 78.4082L91.9819 67.6083C93.3389 66.5288 93.3398 64.4721 91.9819 63.3918Z" fill="#30C2FF"/>
<path d="M110 18.8235C110 13.9504 106.065 10 101.211 10H18.7891C13.935 10 10 13.9504 10 18.8235V28.4706L11.9531 30.4314H108.047C108.81 29.6657 109.237 29.2363 110 28.4706V18.8235Z" fill="#DDDDDD"/>
<path d="M45.3672 23.8824C46.9852 23.8824 48.2969 22.5655 48.2969 20.9412C48.2969 19.3168 46.9852 18 45.3672 18C43.7492 18 42.4375 19.3168 42.4375 20.9412C42.4375 22.5655 43.7492 23.8824 45.3672 23.8824Z" fill="#ED1C24"/>
<path d="M33.6484 23.8824C35.2665 23.8824 36.5781 22.5655 36.5781 20.9412C36.5781 19.3168 35.2665 18 33.6484 18C32.0304 18 30.7188 19.3168 30.7188 20.9412C30.7188 22.5655 32.0304 23.8824 33.6484 23.8824Z" fill="#FFC226"/>
<path d="M21.9297 23.8824C23.5477 23.8824 24.8594 22.5655 24.8594 20.9412C24.8594 19.3168 23.5477 18 21.9297 18C20.3117 18 19 19.3168 19 20.9412C19 22.5655 20.3117 23.8824 21.9297 23.8824Z" fill="#8BC34A"/>
</svg>
